<svg width="1420" height="58" viewBox="0 0 1420 58" fill="none" xmlns="http://www.w3.org/2000/svg">
<rect width="36.3106" height="57.6936" rx="7.88592" fill="#27374D"/>
<path d="M14.8823 37.5144H25.7543V40.8467H10.3382V37.851L21.1766 20.7857H10.3382V17.4534H25.7543V20.4491L14.8823 37.5144Z" fill="white"/>
<rect x="51.6978" width="38.3106" height="57.6936" rx="7.88592" fill="#27374D"/>
<path d="M80.2121 17.4534L72.4704 32.3645V40.8467H68.6332V32.3645L60.8579 17.4534H65.1327L70.5518 28.9312L75.971 17.4534H80.2121Z" fill="white"/>
<rect x="105.396" width="40.3106" height="57.6936" rx="7.88592" fill="#27374D"/>
<path d="M127.313 29.1669L134.583 40.8467H130.275L124.99 32.3645L120.042 40.8467H115.767L123.038 29.1669L115.734 17.4534H120.042L125.36 26.0029L130.342 17.4534H134.617L127.313 29.1669Z" fill="white"/>
<rect x="161.093" width="51.3106" height="57.6936" rx="7.88592" fill="#27374D"/>
<path d="M202.735 17.4534L195.801 40.8467H191.459L186.545 23.1418L181.327 40.8467L177.019 40.8803L170.388 17.4534H174.461L179.308 36.5046L184.559 17.4534H188.867L193.748 36.4036L198.628 17.4534H202.735Z" fill="white"/>
<rect x="227.791" width="41.3106" height="57.6936" rx="7.88592" fill="#27374D"/>
<path d="M259.133 17.4534L250.348 40.8467H245.905L237.086 17.4534H241.192L248.126 36.9085L255.094 17.4534H259.133Z" fill="white"/>
<rect x="284.489" width="41.3106" height="57.6936" rx="7.88592" fill="#27374D"/>
<path d="M299.472 17.4534V32.3645C299.472 34.1372 299.932 35.4724 300.852 36.37C301.795 37.2676 303.096 37.7164 304.757 37.7164C306.44 37.7164 307.741 37.2676 308.661 36.37C309.604 35.4724 310.075 34.1372 310.075 32.3645V17.4534H313.912V32.2972C313.912 34.2046 313.497 35.8202 312.667 37.1441C311.836 38.4681 310.725 39.4554 309.334 40.1062C307.943 40.7569 306.406 41.0823 304.723 41.0823C303.04 41.0823 301.503 40.7569 300.112 40.1062C298.743 39.4554 297.654 38.4681 296.847 37.1441C296.039 35.8202 295.635 34.2046 295.635 32.2972V17.4534H299.472Z" fill="white"/>
<rect x="341.187" width="36.3106" height="57.6936" rx="7.88592" fill="#27374D"/>
<path d="M367.479 17.4534V20.5837H361.252V40.8467H357.415V20.5837H351.155V17.4534H367.479Z" fill="white"/>
<rect x="392.884" width="38.3106" height="57.6936" rx="7.88592" fill="#27374D"/>
<path d="M411.772 41.0823C410.201 41.0823 408.788 40.813 407.531 40.2745C406.274 39.7135 405.287 38.9281 404.569 37.9183C403.851 36.9085 403.492 35.7304 403.492 34.3841H407.598C407.688 35.3939 408.081 36.2241 408.776 36.8749C409.494 37.5256 410.493 37.851 411.772 37.851C413.096 37.851 414.128 37.5368 414.869 36.9085C415.609 36.2578 415.979 35.4275 415.979 34.4177C415.979 33.6323 415.744 32.9928 415.273 32.4991C414.824 32.0055 414.252 31.624 413.556 31.3547C412.883 31.0854 411.94 30.7937 410.729 30.4796C409.203 30.0757 407.957 29.6718 406.992 29.2678C406.05 28.8415 405.242 28.1907 404.569 27.3156C403.896 26.4404 403.559 25.2736 403.559 23.815C403.559 22.4686 403.896 21.2906 404.569 20.2808C405.242 19.271 406.185 18.4968 407.396 17.9583C408.608 17.4197 410.011 17.1504 411.604 17.1504C413.87 17.1504 415.721 17.7227 417.158 18.8671C418.616 19.9891 419.424 21.5374 419.581 23.5121H415.34C415.273 22.6594 414.869 21.9301 414.128 21.3242C413.388 20.7183 412.412 20.4154 411.2 20.4154C410.1 20.4154 409.203 20.6959 408.507 21.2569C407.811 21.8179 407.464 22.6257 407.464 23.6804C407.464 24.3984 407.677 24.9931 408.103 25.4643C408.552 25.9131 409.113 26.2722 409.786 26.5414C410.459 26.8107 411.379 27.1024 412.546 27.4166C414.095 27.8429 415.351 28.2693 416.316 28.6956C417.303 29.122 418.134 29.7839 418.807 30.6815C419.502 31.5567 419.85 32.7348 419.85 34.2158C419.85 35.4051 419.525 36.5271 418.874 37.5817C418.246 38.6364 417.315 39.4891 416.08 40.1398C414.869 40.7681 413.433 41.0823 411.772 41.0823Z" fill="white"/>
<rect x="446.582" width="39.3106" height="57.6936" rx="7.88592" fill="#27374D"/>
<path d="M469.913 40.8467L464.527 31.4894H461.599V40.8467H457.762V17.4534H465.84C467.635 17.4534 469.15 17.7675 470.384 18.3958C471.641 19.0242 472.572 19.8656 473.178 20.9203C473.806 21.975 474.12 23.153 474.12 24.4545C474.12 25.9804 473.671 27.3717 472.774 28.6283C471.899 29.8625 470.541 30.704 468.701 31.1528L474.49 40.8467H469.913ZM461.599 28.4264H465.84C467.276 28.4264 468.353 28.0673 469.071 27.3493C469.812 26.6312 470.182 25.6663 470.182 24.4545C470.182 23.2428 469.823 22.3003 469.105 21.6271C468.387 20.9315 467.299 20.5837 465.84 20.5837H461.599V28.4264Z" fill="white"/>
<rect x="501.28" width="44.3106" height="57.6936" rx="7.88592" fill="#27374D"/>
<path d="M530.568 45.0878L526.462 40.6447C525.452 40.9364 524.341 41.0823 523.13 41.0823C520.953 41.0823 518.945 40.5774 517.105 39.5676C515.287 38.5354 513.84 37.1105 512.762 35.2929C511.708 33.4528 511.18 31.3884 511.18 29.0995C511.18 26.8107 511.708 24.7575 512.762 22.9399C513.84 21.1223 515.287 19.7086 517.105 18.6988C518.945 17.6666 520.953 17.1504 523.13 17.1504C525.329 17.1504 527.337 17.6666 529.155 18.6988C530.995 19.7086 532.442 21.1223 533.497 22.9399C534.551 24.7575 535.079 26.8107 535.079 29.0995C535.079 31.2537 534.607 33.206 533.665 34.9563C532.745 36.6841 531.466 38.0754 529.828 39.13L535.449 45.0878H530.568ZM515.119 29.0995C515.119 30.8274 515.455 32.3533 516.128 33.6772C516.824 34.9787 517.778 35.9885 518.989 36.7066C520.201 37.4022 521.581 37.75 523.13 37.75C524.678 37.75 526.058 37.4022 527.27 36.7066C528.481 35.9885 529.424 34.9787 530.097 33.6772C530.793 32.3533 531.14 30.8274 531.14 29.0995C531.14 27.3717 530.793 25.857 530.097 24.5555C529.424 23.254 528.481 22.2555 527.27 21.5598C526.058 20.8642 524.678 20.5164 523.13 20.5164C521.581 20.5164 520.201 20.8642 518.989 21.5598C517.778 22.2555 516.824 23.254 516.128 24.5555C515.455 25.857 515.119 27.3717 515.119 29.0995Z" fill="white"/>
<rect x="560.978" width="38.3106" height="57.6936" rx="7.88592" fill="#27374D"/>
<path d="M588.516 24.4209C588.516 25.6102 588.235 26.7322 587.674 27.7868C587.113 28.8415 586.216 29.7054 584.982 30.3786C583.747 31.0293 582.165 31.3547 580.236 31.3547H575.994V40.8467H572.157V17.4534H580.236C582.031 17.4534 583.545 17.7675 584.78 18.3958C586.036 19.0017 586.967 19.832 587.573 20.8866C588.202 21.9413 588.516 23.1194 588.516 24.4209ZM580.236 28.2244C581.694 28.2244 582.782 27.899 583.5 27.2483C584.219 26.5751 584.578 25.6326 584.578 24.4209C584.578 21.8628 583.13 20.5837 580.236 20.5837H575.994V28.2244H580.236Z" fill="white"/>
<rect x="614.675" width="44.3106" height="57.6936" rx="7.88592" fill="#27374D"/>
<path d="M636.525 41.0823C634.348 41.0823 632.34 40.5774 630.5 39.5676C628.682 38.5354 627.235 37.1105 626.158 35.2929C625.103 33.4528 624.576 31.3884 624.576 29.0995C624.576 26.8107 625.103 24.7575 626.158 22.9399C627.235 21.1223 628.682 19.7086 630.5 18.6988C632.34 17.6666 634.348 17.1504 636.525 17.1504C638.724 17.1504 640.732 17.6666 642.55 18.6988C644.39 19.7086 645.838 21.1223 646.892 22.9399C647.947 24.7575 648.474 26.8107 648.474 29.0995C648.474 31.3884 647.947 33.4528 646.892 35.2929C645.838 37.1105 644.39 38.5354 642.55 39.5676C640.732 40.5774 638.724 41.0823 636.525 41.0823ZM636.525 37.75C638.073 37.75 639.453 37.4022 640.665 36.7066C641.877 35.9885 642.819 34.9787 643.493 33.6772C644.188 32.3533 644.536 30.8274 644.536 29.0995C644.536 27.3717 644.188 25.857 643.493 24.5555C642.819 23.254 641.877 22.2555 640.665 21.5598C639.453 20.8642 638.073 20.5164 636.525 20.5164C634.977 20.5164 633.597 20.8642 632.385 21.5598C631.173 22.2555 630.22 23.254 629.524 24.5555C628.851 25.857 628.514 27.3717 628.514 29.0995C628.514 30.8274 628.851 32.3533 629.524 33.6772C630.22 34.9787 631.173 35.9885 632.385 36.7066C633.597 37.4022 634.977 37.75 636.525 37.75Z" fill="white"/>
<rect x="674.373" width="42.3106" height="57.6936" rx="7.88592" fill="#27374D"/>
<path d="M704.772 40.8467H700.935L689.389 23.3774V40.8467H685.552V17.4197H689.389L700.935 34.8553V17.4197H704.772V40.8467Z" fill="white"/>
<rect x="732.07" width="47.3106" height="57.6936" rx="7.88592" fill="#27374D"/>
<path d="M767.889 17.4534V40.8467H764.052V24.8248L756.916 40.8467H754.257L747.087 24.8248V40.8467H743.25V17.4534H747.39L755.603 35.7978L763.782 17.4534H767.889Z" fill="white"/>
<rect x="794.768" width="32.3106" height="57.6936" rx="7.88592" fill="#27374D"/>
<path d="M809.785 37.75H817.695V40.8467H805.948V17.4534H809.785V37.75Z" fill="white"/>
<rect x="842.466" width="39.3106" height="57.6936" rx="7.88592" fill="#27374D"/>
<path d="M866.537 40.8467L857.483 30.3786V40.8467H853.646V17.4534H857.483V28.1234L866.571 17.4534H871.384L861.219 29.1669L871.552 40.8467H866.537Z" fill="white"/>
<rect x="897.164" width="36.3106" height="57.6936" rx="7.88592" fill="#27374D"/>
<path d="M921.1 17.4534V34.3168C921.1 36.4036 920.461 38.0529 919.182 39.2647C917.925 40.4764 916.264 41.0823 914.2 41.0823C912.136 41.0823 910.464 40.4764 909.185 39.2647C907.928 38.0529 907.3 36.4036 907.3 34.3168H911.171C911.193 35.349 911.451 36.168 911.945 36.7739C912.461 37.3798 913.213 37.6827 914.2 37.6827C915.187 37.6827 915.939 37.3798 916.455 36.7739C916.971 36.1456 917.229 35.3265 917.229 34.3168V17.4534H921.1Z" fill="white"/>
<rect x="948.861" width="26.3106" height="57.6936" rx="7.88592" fill="#27374D"/>
<path d="M963.878 17.4534V40.8467H960.041V17.4534H963.878Z" fill="white"/>
<rect x="990.559" width="41.3106" height="57.6936" rx="7.88592" fill="#27374D"/>
<path d="M1020.42 17.4534V40.8467H1016.58V30.6142H1005.58V40.8467H1001.74V17.4534H1005.58V27.4839H1016.58V17.4534H1020.42Z" fill="white"/>
<rect x="1047.26" width="44.3106" height="57.6936" rx="7.88592" fill="#27374D"/>
<path d="M1075.37 24.1853C1074.76 23.0184 1073.92 22.1433 1072.84 21.5598C1071.77 20.954 1070.52 20.651 1069.11 20.651C1067.56 20.651 1066.18 20.9988 1064.97 21.6945C1063.75 22.3901 1062.8 23.3774 1062.11 24.6565C1061.43 25.9356 1061.1 27.4166 1061.1 29.0995C1061.1 30.7825 1061.43 32.2747 1062.11 33.5762C1062.8 34.8553 1063.75 35.8426 1064.97 36.5383C1066.18 37.2339 1067.56 37.5817 1069.11 37.5817C1071.19 37.5817 1072.89 36.9983 1074.19 35.8314C1075.49 34.6646 1076.29 33.0826 1076.58 31.0854H1067.79V28.0224H1080.69V31.0181C1080.44 32.8357 1079.79 34.5075 1078.73 36.0334C1077.7 37.5593 1076.34 38.7822 1074.66 39.7023C1073 40.5998 1071.15 41.0486 1069.11 41.0486C1066.91 41.0486 1064.9 40.5437 1063.08 39.534C1061.26 38.5017 1059.82 37.0768 1058.74 35.2592C1057.68 33.4416 1057.16 31.3884 1057.16 29.0995C1057.16 26.8107 1057.68 24.7575 1058.74 22.9399C1059.82 21.1223 1061.26 19.7086 1063.08 18.6988C1064.92 17.6666 1066.93 17.1504 1069.11 17.1504C1071.6 17.1504 1073.81 17.7675 1075.74 19.0017C1077.69 20.2135 1079.1 21.9413 1079.98 24.1853H1075.37Z" fill="white"/>
<rect x="1106.95" width="35.3106" height="57.6936" rx="7.88592" fill="#27374D"/>
<path d="M1131.9 17.4534V20.5837H1121.97V27.4839H1129.71V30.6142H1121.97V40.8467H1118.13V17.4534H1131.9Z" fill="white"/>
<rect x="1157.65" width="35.3106" height="57.6936" rx="7.88592" fill="#27374D"/>
<path d="M1172.67 20.55V27.4166H1180.75V30.5469H1172.67V37.7164H1181.76V40.8467H1168.83V17.4197H1181.76V20.55H1172.67Z" fill="white"/>
<rect x="1208.35" width="41.3106" height="57.6936" rx="7.88592" fill="#27374D"/>
<path d="M1227.17 17.4534C1229.66 17.4534 1231.84 17.9358 1233.7 18.9007C1235.59 19.8432 1237.03 21.212 1238.04 23.0072C1239.07 24.7799 1239.59 26.8556 1239.59 29.2342C1239.59 31.6128 1239.07 33.6772 1238.04 35.4275C1237.03 37.1778 1235.59 38.5242 1233.7 39.4666C1231.84 40.3867 1229.66 40.8467 1227.17 40.8467H1219.53V17.4534H1227.17ZM1227.17 37.7164C1229.91 37.7164 1232.01 36.9758 1233.46 35.4948C1234.92 34.0138 1235.65 31.9269 1235.65 29.2342C1235.65 26.519 1234.92 24.3984 1233.46 22.8725C1232.01 21.3467 1229.91 20.5837 1227.17 20.5837H1223.37V37.7164H1227.17Z" fill="white"/>
<rect x="1265.05" width="44.3106" height="57.6936" rx="7.88592" fill="#27374D"/>
<path d="M1274.95 29.0995C1274.95 26.8107 1275.48 24.7575 1276.53 22.9399C1277.61 21.1223 1279.05 19.7086 1280.87 18.6988C1282.71 17.6666 1284.72 17.1504 1286.9 17.1504C1289.39 17.1504 1291.6 17.7675 1293.53 19.0017C1295.48 20.2135 1296.89 21.9413 1297.77 24.1853H1293.16C1292.55 22.9511 1291.71 22.0311 1290.63 21.4252C1289.56 20.8193 1288.31 20.5164 1286.9 20.5164C1285.35 20.5164 1283.97 20.8642 1282.76 21.5598C1281.55 22.2555 1280.59 23.254 1279.9 24.5555C1279.22 25.857 1278.89 27.3717 1278.89 29.0995C1278.89 30.8274 1279.22 32.3421 1279.9 33.6436C1280.59 34.9451 1281.55 35.9548 1282.76 36.6729C1283.97 37.3685 1285.35 37.7164 1286.9 37.7164C1288.31 37.7164 1289.56 37.4134 1290.63 36.8075C1291.71 36.2017 1292.55 35.2817 1293.16 34.0475H1297.77C1296.89 36.2914 1295.48 38.0193 1293.53 39.231C1291.6 40.4428 1289.39 41.0486 1286.9 41.0486C1284.7 41.0486 1282.69 40.5437 1280.87 39.534C1279.05 38.5017 1277.61 37.0768 1276.53 35.2592C1275.48 33.4416 1274.95 31.3884 1274.95 29.0995Z" fill="white"/>
<rect x="1321.86" width="39.3106" height="57.6936" rx="7.88592" fill="#27374D"/>
<path d="M1345.56 28.8303C1346.82 29.0547 1347.88 29.7166 1348.76 30.8162C1349.63 31.9157 1350.07 33.1611 1350.07 34.5524C1350.07 35.7417 1349.76 36.8188 1349.13 37.7837C1348.52 38.7261 1347.64 39.4779 1346.47 40.0389C1345.3 40.5774 1343.95 40.8467 1342.4 40.8467H1333.04V17.4534H1341.96C1343.55 17.4534 1344.92 17.7227 1346.07 18.2612C1347.21 18.7998 1348.07 19.529 1348.66 20.4491C1349.24 21.3467 1349.53 22.3564 1349.53 23.4784C1349.53 24.8248 1349.17 25.9468 1348.46 26.8444C1347.74 27.7419 1346.77 28.4039 1345.56 28.8303ZM1336.88 27.2819H1341.62C1342.88 27.2819 1343.86 27.0014 1344.55 26.4404C1345.27 25.857 1345.63 25.0268 1345.63 23.9496C1345.63 22.895 1345.27 22.0759 1344.55 21.4925C1343.86 20.8866 1342.88 20.5837 1341.62 20.5837H1336.88V27.2819ZM1342.06 37.7164C1343.36 37.7164 1344.38 37.4022 1345.12 36.7739C1345.86 36.1456 1346.23 35.2704 1346.23 34.1485C1346.23 33.004 1345.84 32.0952 1345.06 31.422C1344.27 30.7489 1343.23 30.4123 1341.93 30.4123H1336.88V37.7164H1342.06Z" fill="white"/>
<rect x="1376.56" width="41.3106" height="57.6936" rx="7.88592" fill="#27374D"/>
<path d="M1401.84 36.067H1392.05L1390.36 40.8467H1386.36L1394.74 17.4197H1399.18L1407.56 40.8467H1403.52L1401.84 36.067ZM1400.76 32.9367L1396.96 22.0647L1393.12 32.9367H1400.76Z" fill="white"/>
</svg>
