<svg width="1420" height="494" viewBox="0 0 1420 494" fill="none" xmlns="http://www.w3.org/2000/svg">
<path d="M4.1013 22.0036H9.2008V24H1.6275V8.9185H4.1013V22.0036ZM22.2281 17.7287C22.2281 18.1772 22.1992 18.5822 22.1413 18.9439H13.0056C13.0779 19.8987 13.4324 20.6654 14.0689 21.2441C14.7054 21.8228 15.4866 22.1121 16.4125 22.1121C17.7434 22.1121 18.6838 21.5551 19.2335 20.4412H21.9026C21.5409 21.5407 20.8827 22.4448 19.9279 23.1537C18.9876 23.8481 17.8158 24.1953 16.4125 24.1953C15.2696 24.1953 14.2425 23.9421 13.3311 23.4358C12.4342 22.915 11.7253 22.1917 11.2045 21.2658C10.6982 20.3255 10.445 19.2405 10.445 18.0108C10.445 16.7811 10.6909 15.7034 11.1828 14.7775C11.6891 13.8372 12.3908 13.1138 13.2877 12.6075C14.1991 12.1012 15.2407 11.848 16.4125 11.848C17.5409 11.848 18.5463 12.0939 19.4288 12.5858C20.3113 13.0777 20.9984 13.7721 21.4903 14.669C21.9822 15.5515 22.2281 16.5714 22.2281 17.7287ZM19.6458 16.9475C19.6313 16.0361 19.3058 15.3055 18.6693 14.7558C18.0328 14.2061 17.2443 13.9312 16.304 13.9312C15.4505 13.9312 14.7199 14.2061 14.1123 14.7558C13.5047 15.2911 13.143 16.0216 13.0273 16.9475H19.6458ZM27.5487 14.0614V20.6799C27.5487 21.1284 27.6499 21.4539 27.8525 21.6564C28.0695 21.8445 28.4311 21.9385 28.9375 21.9385H30.4565V24H28.5035C27.3895 24 26.536 23.7396 25.9429 23.2188C25.3497 22.698 25.0532 21.8517 25.0532 20.6799V14.0614H23.6427V12.0433H25.0532V9.0704H27.5487V12.0433H30.4565V14.0614H27.5487ZM35.6226 14.0614V20.6799C35.6226 21.1284 35.7239 21.4539 35.9264 21.6564C36.1434 21.8445 36.5051 21.9385 37.0114 21.9385H38.5304V24H36.5774C35.4635 24 34.6099 23.7396 34.0168 23.2188C33.4237 22.698 33.1271 21.8517 33.1271 20.6799V14.0614H31.7166V12.0433H33.1271V9.0704H35.6226V12.0433H38.5304V14.0614H35.6226ZM51.7689 17.7287C51.7689 18.1772 51.74 18.5822 51.6821 18.9439H42.5464C42.6187 19.8987 42.9732 20.6654 43.6097 21.2441C44.2462 21.8228 45.0274 22.1121 45.9533 22.1121C47.2842 22.1121 48.2246 21.5551 48.7743 20.4412H51.4434C51.0817 21.5407 50.4235 22.4448 49.4687 23.1537C48.5284 23.8481 47.3566 24.1953 45.9533 24.1953C44.8104 24.1953 43.7833 23.9421 42.8719 23.4358C41.975 22.915 41.2661 22.1917 40.7453 21.2658C40.239 20.3255 39.9858 19.2405 39.9858 18.0108C39.9858 16.7811 40.2317 15.7034 40.7236 14.7775C41.2299 13.8372 41.9316 13.1138 42.8285 12.6075C43.7399 12.1012 44.7815 11.848 45.9533 11.848C47.0817 11.848 48.0871 12.0939 48.9696 12.5858C49.8521 13.0777 50.5392 13.7721 51.0311 14.669C51.523 15.5515 51.7689 16.5714 51.7689 17.7287ZM49.1866 16.9475C49.1721 16.0361 48.8466 15.3055 48.2101 14.7558C47.5736 14.2061 46.7851 13.9312 45.8448 13.9312C44.9913 13.9312 44.2607 14.2061 43.6531 14.7558C43.0455 15.2911 42.6838 16.0216 42.5681 16.9475H49.1866ZM56.6772 13.7793C57.0389 13.1717 57.5163 12.7015 58.1094 12.3688C58.717 12.0216 59.4331 11.848 60.2577 11.848V14.4086H59.6284C58.6591 14.4086 57.9213 14.6545 57.415 15.1464C56.9231 15.6383 56.6772 16.4918 56.6772 17.707V24H54.2034V12.0433H56.6772V13.7793ZM66.8716 24.1953C65.9313 24.1953 65.085 24.0289 64.3327 23.6962C63.5949 23.349 63.009 22.8861 62.575 22.3074C62.141 21.7143 61.9095 21.056 61.8806 20.3327H64.4412C64.4846 20.839 64.7233 21.2658 65.1573 21.613C65.6058 21.9457 66.1627 22.1121 66.8282 22.1121C67.5226 22.1121 68.0579 21.9819 68.434 21.7215C68.8246 21.4466 69.0199 21.0994 69.0199 20.6799C69.0199 20.2314 68.8029 19.8987 68.3689 19.6817C67.9494 19.4647 67.2767 19.226 66.3508 18.9656C65.4539 18.7197 64.7233 18.481 64.1591 18.2495C63.5949 18.018 63.103 17.6636 62.6835 17.1862C62.2784 16.7088 62.0759 16.0795 62.0759 15.2983C62.0759 14.6618 62.264 14.0831 62.6401 13.5623C63.0162 13.027 63.5515 12.6075 64.2459 12.3037C64.9548 11.9999 65.7649 11.848 66.6763 11.848C68.0362 11.848 69.1284 12.1952 69.953 12.8896C70.7921 13.5695 71.2405 14.5026 71.2984 15.6889H68.8246C68.7812 15.1536 68.5642 14.7269 68.1736 14.4086C67.783 14.0903 67.255 13.9312 66.5895 13.9312C65.9385 13.9312 65.4394 14.0542 65.0922 14.3001C64.745 14.546 64.5714 14.8715 64.5714 15.2766C64.5714 15.5949 64.6871 15.8625 64.9186 16.0795C65.1501 16.2965 65.4322 16.4701 65.7649 16.6003C66.0976 16.716 66.5895 16.8679 67.2405 17.056C68.1085 17.2875 68.8174 17.5262 69.3671 17.7721C69.9313 18.0036 70.4159 18.3508 70.821 18.8137C71.2261 19.2766 71.4358 19.8915 71.4503 20.6582C71.4503 21.3381 71.2622 21.9457 70.8861 22.481C70.51 23.0163 69.9747 23.4358 69.2803 23.7396C68.6004 24.0434 67.7975 24.1953 66.8716 24.1953Z" fill="white"/>
<rect y="66" width="41.3106" height="57.6936" rx="7.88592" fill="#455D72"/>
<path d="M25.2831 102.067H15.4882L13.8052 106.847H9.79972L18.1809 83.4197H22.624L31.0052 106.847H26.966L25.2831 102.067ZM24.206 98.9367L20.4024 88.0647L16.5653 98.9367H24.206Z" fill="white"/>
<rect x="56.6977" y="66" width="39.3106" height="57.6936" rx="7.88592" fill="#455D72"/>
<path d="M80.3988 94.8303C81.6554 95.0547 82.7213 95.7166 83.5964 96.8162C84.4715 97.9157 84.9091 99.1611 84.9091 100.552C84.9091 101.742 84.595 102.819 83.9667 103.784C83.3608 104.726 82.4744 105.478 81.3076 106.039C80.1407 106.577 78.7831 106.847 77.2348 106.847H67.8775V83.4534H76.7972C78.3904 83.4534 79.7592 83.7227 80.9036 84.2612C82.0481 84.7998 82.912 85.529 83.4954 86.4491C84.0789 87.3467 84.3706 88.3564 84.3706 89.4784C84.3706 90.8248 84.0115 91.9468 83.2935 92.8444C82.5754 93.7419 81.6105 94.4039 80.3988 94.8303ZM71.7146 93.2819H76.4606C77.7172 93.2819 78.6933 93.0014 79.389 92.4404C80.107 91.857 80.4661 91.0268 80.4661 89.9496C80.4661 88.895 80.107 88.0759 79.389 87.4925C78.6933 86.8866 77.7172 86.5837 76.4606 86.5837H71.7146V93.2819ZM76.8982 103.716C78.1997 103.716 79.2207 103.402 79.9612 102.774C80.7017 102.146 81.0719 101.27 81.0719 100.148C81.0719 99.004 80.6793 98.0952 79.8939 97.422C79.1085 96.7489 78.065 96.4123 76.7635 96.4123H71.7146V103.716H76.8982Z" fill="white"/>
<rect x="111.395" y="66" width="44.3106" height="57.6936" rx="7.88592" fill="#455D72"/>
<path d="M121.296 95.0995C121.296 92.8107 121.823 90.7575 122.878 88.9399C123.955 87.1223 125.403 85.7086 127.22 84.6988C129.06 83.6666 131.069 83.1504 133.245 83.1504C135.736 83.1504 137.946 83.7675 139.876 85.0017C141.828 86.2135 143.242 87.9413 144.117 90.1853H139.506C138.9 88.9511 138.059 88.0311 136.981 87.4252C135.904 86.8193 134.659 86.5164 133.245 86.5164C131.697 86.5164 130.317 86.8642 129.105 87.5598C127.893 88.2555 126.94 89.254 126.244 90.5555C125.571 91.857 125.234 93.3717 125.234 95.0995C125.234 96.8274 125.571 98.3421 126.244 99.6436C126.94 100.945 127.893 101.955 129.105 102.673C130.317 103.369 131.697 103.716 133.245 103.716C134.659 103.716 135.904 103.413 136.981 102.808C138.059 102.202 138.9 101.282 139.506 100.047H144.117C143.242 102.291 141.828 104.019 139.876 105.231C137.946 106.443 135.736 107.049 133.245 107.049C131.046 107.049 129.038 106.544 127.22 105.534C125.403 104.502 123.955 103.077 122.878 101.259C121.823 99.4416 121.296 97.3884 121.296 95.0995Z" fill="white"/>
<rect x="171.093" y="66" width="41.3106" height="57.6936" rx="7.88592" fill="#455D72"/>
<path d="M189.914 83.4534C192.404 83.4534 194.581 83.9358 196.444 84.9007C198.329 85.8432 199.776 87.212 200.786 89.0072C201.818 90.7799 202.334 92.8556 202.334 95.2342C202.334 97.6128 201.818 99.6772 200.786 101.428C199.776 103.178 198.329 104.524 196.444 105.467C194.581 106.387 192.404 106.847 189.914 106.847H182.273V83.4534H189.914ZM189.914 103.716C192.651 103.716 194.749 102.976 196.208 101.495C197.667 100.014 198.396 97.9269 198.396 95.2342C198.396 92.519 197.667 90.3984 196.208 88.8725C194.749 87.3467 192.651 86.5837 189.914 86.5837H186.11V103.716H189.914Z" fill="white"/>
<rect x="227.791" y="66" width="35.3106" height="57.6936" rx="7.88592" fill="#455D72"/>
<path d="M242.808 86.55V93.4166H250.886V96.5469H242.808V103.716H251.896V106.847H238.971V83.4197H251.896V86.55H242.808Z" fill="white"/>
<rect x="278.489" y="66" width="35.3106" height="57.6936" rx="7.88592" fill="#455D72"/>
<path d="M303.435 83.4534V86.5837H293.506V93.4839H301.247V96.6142H293.506V106.847H289.668V83.4534H303.435Z" fill="white"/>
<rect x="329.186" y="66" width="44.3106" height="57.6936" rx="7.88592" fill="#455D72"/>
<path d="M357.297 90.1853C356.691 89.0184 355.849 88.1433 354.772 87.5598C353.695 86.954 352.45 86.651 351.036 86.651C349.488 86.651 348.108 86.9988 346.896 87.6945C345.684 88.3901 344.731 89.3774 344.035 90.6565C343.362 91.9356 343.025 93.4166 343.025 95.0995C343.025 96.7825 343.362 98.2747 344.035 99.5762C344.731 100.855 345.684 101.843 346.896 102.538C348.108 103.234 349.488 103.582 351.036 103.582C353.123 103.582 354.817 102.998 356.119 101.831C357.42 100.665 358.217 99.0826 358.508 97.0854H349.723V94.0224H362.615V97.0181C362.368 98.8357 361.717 100.507 360.663 102.033C359.63 103.559 358.273 104.782 356.59 105.702C354.929 106.6 353.078 107.049 351.036 107.049C348.837 107.049 346.829 106.544 345.011 105.534C343.193 104.502 341.746 103.077 340.669 101.259C339.614 99.4416 339.087 97.3884 339.087 95.0995C339.087 92.8107 339.614 90.7575 340.669 88.9399C341.746 87.1223 343.193 85.7086 345.011 84.6988C346.851 83.6666 348.859 83.1504 351.036 83.1504C353.527 83.1504 355.737 83.7675 357.667 85.0017C359.619 86.2135 361.033 87.9413 361.908 90.1853H357.297Z" fill="white"/>
<rect x="388.884" y="66" width="41.3106" height="57.6936" rx="7.88592" fill="#455D72"/>
<path d="M418.745 83.4534V106.847H414.908V96.6142H403.901V106.847H400.064V83.4534H403.901V93.4839H414.908V83.4534H418.745Z" fill="white"/>
<rect x="445.582" y="66" width="26.3106" height="57.6936" rx="7.88592" fill="#455D72"/>
<path d="M460.599 83.4534V106.847H456.762V83.4534H460.599Z" fill="white"/>
<rect x="487.28" y="66" width="36.3106" height="57.6936" rx="7.88592" fill="#455D72"/>
<path d="M511.216 83.4534V100.317C511.216 102.404 510.577 104.053 509.298 105.265C508.041 106.476 506.38 107.082 504.316 107.082C502.252 107.082 500.58 106.476 499.301 105.265C498.044 104.053 497.416 102.404 497.416 100.317H501.287C501.309 101.349 501.567 102.168 502.061 102.774C502.577 103.38 503.329 103.683 504.316 103.683C505.303 103.683 506.055 103.38 506.571 102.774C507.087 102.146 507.345 101.327 507.345 100.317V83.4534H511.216Z" fill="white"/>
<rect x="538.977" y="66" width="39.3106" height="57.6936" rx="7.88592" fill="#455D72"/>
<path d="M563.049 106.847L553.994 96.3786V106.847H550.157V83.4534H553.994V94.1234L563.082 83.4534H567.895L557.73 95.1669L568.064 106.847H563.049Z" fill="white"/>
<rect x="593.675" y="66" width="32.3106" height="57.6936" rx="7.88592" fill="#455D72"/>
<path d="M608.692 103.75H616.602V106.847H604.855V83.4534H608.692V103.75Z" fill="white"/>
<rect x="641.373" y="66" width="47.3106" height="57.6936" rx="7.88592" fill="#455D72"/>
<path d="M677.191 83.4534V106.847H673.354V90.8248L666.218 106.847H663.559L656.39 90.8248V106.847H652.552V83.4534H656.693L664.905 101.798L673.085 83.4534H677.191Z" fill="white"/>
<rect x="704.07" y="66" width="42.3106" height="57.6936" rx="7.88592" fill="#455D72"/>
<path d="M734.47 106.847H730.633L719.087 89.3774V106.847H715.25V83.4197H719.087L730.633 100.855V83.4197H734.47V106.847Z" fill="white"/>
<rect x="761.768" y="66" width="44.3106" height="57.6936" rx="7.88592" fill="#455D72"/>
<path d="M783.618 107.082C781.441 107.082 779.433 106.577 777.593 105.568C775.775 104.535 774.328 103.11 773.251 101.293C772.196 99.4528 771.669 97.3884 771.669 95.0995C771.669 92.8107 772.196 90.7575 773.251 88.9399C774.328 87.1223 775.775 85.7086 777.593 84.6988C779.433 83.6666 781.441 83.1504 783.618 83.1504C785.817 83.1504 787.825 83.6666 789.643 84.6988C791.483 85.7086 792.93 87.1223 793.985 88.9399C795.04 90.7575 795.567 92.8107 795.567 95.0995C795.567 97.3884 795.04 99.4528 793.985 101.293C792.93 103.11 791.483 104.535 789.643 105.568C787.825 106.577 785.817 107.082 783.618 107.082ZM783.618 103.75C785.166 103.75 786.546 103.402 787.758 102.707C788.97 101.989 789.912 100.979 790.585 99.6772C791.281 98.3533 791.629 96.8274 791.629 95.0995C791.629 93.3717 791.281 91.857 790.585 90.5555C789.912 89.254 788.97 88.2555 787.758 87.5598C786.546 86.8642 785.166 86.5164 783.618 86.5164C782.07 86.5164 780.69 86.8642 779.478 87.5598C778.266 88.2555 777.312 89.254 776.617 90.5555C775.944 91.857 775.607 93.3717 775.607 95.0995C775.607 96.8274 775.944 98.3533 776.617 99.6772C777.312 100.979 778.266 101.989 779.478 102.707C780.69 103.402 782.07 103.75 783.618 103.75Z" fill="white"/>
<rect x="821.466" y="66" width="38.3106" height="57.6936" rx="7.88592" fill="#455D72"/>
<path d="M849.004 90.4209C849.004 91.6102 848.724 92.7322 848.163 93.7868C847.602 94.8415 846.704 95.7054 845.47 96.3786C844.236 97.0293 842.654 97.3547 840.724 97.3547H836.483V106.847H832.646V83.4534H840.724C842.519 83.4534 844.034 83.7675 845.268 84.3958C846.524 85.0017 847.456 85.832 848.062 86.8866C848.69 87.9413 849.004 89.1194 849.004 90.4209ZM840.724 94.2244C842.182 94.2244 843.271 93.899 843.989 93.2483C844.707 92.5751 845.066 91.6326 845.066 90.4209C845.066 87.8628 843.619 86.5837 840.724 86.5837H836.483V94.2244H840.724Z" fill="white"/>
<rect x="875.164" y="66" width="44.3106" height="57.6936" rx="7.88592" fill="#455D72"/>
<path d="M904.452 111.088L900.346 106.645C899.336 106.936 898.225 107.082 897.013 107.082C894.837 107.082 892.828 106.577 890.988 105.568C889.171 104.535 887.723 103.11 886.646 101.293C885.592 99.4528 885.064 97.3884 885.064 95.0995C885.064 92.8107 885.592 90.7575 886.646 88.9399C887.723 87.1223 889.171 85.7086 890.988 84.6988C892.828 83.6666 894.837 83.1504 897.013 83.1504C899.212 83.1504 901.221 83.6666 903.038 84.6988C904.878 85.7086 906.326 87.1223 907.38 88.9399C908.435 90.7575 908.962 92.8107 908.962 95.0995C908.962 97.2537 908.491 99.206 907.549 100.956C906.629 102.684 905.35 104.075 903.712 105.13L909.333 111.088H904.452ZM889.002 95.0995C889.002 96.8274 889.339 98.3533 890.012 99.6772C890.708 100.979 891.661 101.989 892.873 102.707C894.085 103.402 895.465 103.75 897.013 103.75C898.562 103.75 899.942 103.402 901.153 102.707C902.365 101.989 903.308 100.979 903.981 99.6772C904.676 98.3533 905.024 96.8274 905.024 95.0995C905.024 93.3717 904.676 91.857 903.981 90.5555C903.308 89.254 902.365 88.2555 901.153 87.5598C899.942 86.8642 898.562 86.5164 897.013 86.5164C895.465 86.5164 894.085 86.8642 892.873 87.5598C891.661 88.2555 890.708 89.254 890.012 90.5555C889.339 91.857 889.002 93.3717 889.002 95.0995Z" fill="white"/>
<rect x="934.861" y="66" width="39.3106" height="57.6936" rx="7.88592" fill="#455D72"/>
<path d="M958.192 106.847L952.807 97.4894H949.878V106.847H946.041V83.4534H954.119C955.914 83.4534 957.429 83.7675 958.663 84.3958C959.92 85.0242 960.851 85.8656 961.457 86.9203C962.085 87.975 962.4 89.153 962.4 90.4545C962.4 91.9804 961.951 93.3717 961.053 94.6283C960.178 95.8625 958.82 96.704 956.98 97.1528L962.77 106.847H958.192ZM949.878 94.4264H954.119C955.555 94.4264 956.633 94.0673 957.351 93.3493C958.091 92.6312 958.461 91.6663 958.461 90.4545C958.461 89.2428 958.102 88.3003 957.384 87.6271C956.666 86.9315 955.578 86.5837 954.119 86.5837H949.878V94.4264Z" fill="white"/>
<rect x="989.559" y="66" width="38.3106" height="57.6936" rx="7.88592" fill="#455D72"/>
<path d="M1008.45 107.082C1006.88 107.082 1005.46 106.813 1004.21 106.274C1002.95 105.713 1001.96 104.928 1001.24 103.918C1000.53 102.909 1000.17 101.73 1000.17 100.384H1004.27C1004.36 101.394 1004.76 102.224 1005.45 102.875C1006.17 103.526 1007.17 103.851 1008.45 103.851C1009.77 103.851 1010.8 103.537 1011.54 102.909C1012.28 102.258 1012.65 101.428 1012.65 100.418C1012.65 99.6323 1012.42 98.9928 1011.95 98.4991C1011.5 98.0055 1010.93 97.624 1010.23 97.3547C1009.56 97.0854 1008.62 96.7937 1007.4 96.4796C1005.88 96.0757 1004.63 95.6718 1003.67 95.2678C1002.72 94.8415 1001.92 94.1907 1001.24 93.3156C1000.57 92.4404 1000.23 91.2736 1000.23 89.815C1000.23 88.4686 1000.57 87.2906 1001.24 86.2808C1001.92 85.271 1002.86 84.4968 1004.07 83.9583C1005.28 83.4197 1006.69 83.1504 1008.28 83.1504C1010.55 83.1504 1012.4 83.7227 1013.83 84.8671C1015.29 85.9891 1016.1 87.5374 1016.26 89.5121H1012.01C1011.95 88.6594 1011.54 87.9301 1010.8 87.3242C1010.06 86.7183 1009.09 86.4154 1007.87 86.4154C1006.78 86.4154 1005.88 86.6959 1005.18 87.2569C1004.49 87.8179 1004.14 88.6257 1004.14 89.6804C1004.14 90.3984 1004.35 90.9931 1004.78 91.4643C1005.23 91.9131 1005.79 92.2722 1006.46 92.5414C1007.13 92.8107 1008.05 93.1024 1009.22 93.4166C1010.77 93.8429 1012.03 94.2693 1012.99 94.6956C1013.98 95.122 1014.81 95.7839 1015.48 96.6815C1016.18 97.5567 1016.53 98.7348 1016.53 100.216C1016.53 101.405 1016.2 102.527 1015.55 103.582C1014.92 104.636 1013.99 105.489 1012.76 106.14C1011.54 106.768 1010.11 107.082 1008.45 107.082Z" fill="white"/>
<rect x="1043.26" y="66" width="36.3106" height="57.6936" rx="7.88592" fill="#455D72"/>
<path d="M1069.55 83.4534V86.5837H1063.32V106.847H1059.49V86.5837H1053.22V83.4534H1069.55Z" fill="white"/>
<rect x="1094.95" y="66" width="41.3106" height="57.6936" rx="7.88592" fill="#455D72"/>
<path d="M1109.94 83.4534V98.3645C1109.94 100.137 1110.4 101.472 1111.32 102.37C1112.26 103.268 1113.56 103.716 1115.22 103.716C1116.91 103.716 1118.21 103.268 1119.13 102.37C1120.07 101.472 1120.54 100.137 1120.54 98.3645V83.4534H1124.38V98.2972C1124.38 100.205 1123.96 101.82 1123.13 103.144C1122.3 104.468 1121.19 105.455 1119.8 106.106C1118.41 106.757 1116.87 107.082 1115.19 107.082C1113.51 107.082 1111.97 106.757 1110.58 106.106C1109.21 105.455 1108.12 104.468 1107.31 103.144C1106.5 101.82 1106.1 100.205 1106.1 98.2972V83.4534H1109.94Z" fill="white"/>
<rect x="1151.65" y="66" width="41.3106" height="57.6936" rx="7.88592" fill="#455D72"/>
<path d="M1182.99 83.4534L1174.21 106.847H1169.77L1160.95 83.4534H1165.05L1171.99 102.909L1178.95 83.4534H1182.99Z" fill="white"/>
<rect x="1208.35" y="66" width="51.3106" height="57.6936" rx="7.88592" fill="#455D72"/>
<path d="M1249.99 83.4534L1243.06 106.847H1238.72L1233.8 89.1418L1228.58 106.847L1224.28 106.88L1217.64 83.4534H1221.72L1226.56 102.505L1231.82 83.4534H1236.12L1241 102.404L1245.89 83.4534H1249.99Z" fill="white"/>
<rect x="1275.05" y="66" width="40.3106" height="57.6936" rx="7.88592" fill="#455D72"/>
<path d="M1296.96 95.1669L1304.24 106.847H1299.93L1294.64 98.3645L1289.69 106.847H1285.42L1292.69 95.1669L1285.39 83.4534H1289.69L1295.01 92.0029L1299.99 83.4534H1304.27L1296.96 95.1669Z" fill="white"/>
<rect x="1327.86" y="66" width="38.3106" height="57.6936" rx="7.88592" fill="#455D72"/>
<path d="M1356.37 83.4534L1348.63 98.3645V106.847H1344.8V98.3645L1337.02 83.4534H1341.3L1346.71 94.9312L1352.13 83.4534H1356.37Z" fill="white"/>
<rect x="1381.56" y="66" width="36.3106" height="57.6936" rx="7.88592" fill="#455D72"/>
<path d="M1396.44 103.514H1407.31V106.847H1391.9V103.851L1402.73 86.7857H1391.9V83.4534H1407.31V86.4491L1396.44 103.514Z" fill="white"/>
<path d="M6.5968 180.845C5.58413 180.845 4.67273 180.672 3.8626 180.324C3.05247 179.963 2.41593 179.456 1.953 178.805C1.49007 178.154 1.2586 177.395 1.2586 176.527H3.906C3.96387 177.178 4.21703 177.713 4.6655 178.133C5.12843 178.552 5.7722 178.762 6.5968 178.762C7.45033 178.762 8.1158 178.56 8.5932 178.154C9.0706 177.735 9.3093 177.2 9.3093 176.549C9.3093 176.042 9.1574 175.63 8.8536 175.312C8.56427 174.993 8.19537 174.748 7.7469 174.574C7.3129 174.4 6.7053 174.212 5.9241 174.01C4.94037 173.749 4.13747 173.489 3.5154 173.229C2.9078 172.954 2.387 172.534 1.953 171.97C1.519 171.406 1.302 170.653 1.302 169.713C1.302 168.845 1.519 168.086 1.953 167.435C2.387 166.784 2.9946 166.285 3.7758 165.937C4.557 165.59 5.46117 165.417 6.4883 165.417C7.94943 165.417 9.14293 165.785 10.0688 166.523C11.0091 167.247 11.5299 168.245 11.6312 169.518H8.897C8.8536 168.968 8.5932 168.498 8.1158 168.107C7.6384 167.717 7.0091 167.521 6.2279 167.521C5.51903 167.521 4.94037 167.702 4.4919 168.064C4.04343 168.426 3.8192 168.946 3.8192 169.626C3.8192 170.089 3.95663 170.473 4.2315 170.776C4.52083 171.066 4.8825 171.297 5.3165 171.471C5.7505 171.644 6.34363 171.833 7.0959 172.035C8.0941 172.31 8.90423 172.585 9.5263 172.86C10.1628 173.135 10.6981 173.561 11.1321 174.14C11.5806 174.704 11.8048 175.464 11.8048 176.418C11.8048 177.185 11.595 177.909 11.1755 178.588C10.7704 179.268 10.1701 179.818 9.3744 180.238C8.5932 180.643 7.66733 180.845 6.5968 180.845ZM25.6823 174.422C25.6823 174.871 25.6534 175.276 25.5955 175.637H16.4598C16.5321 176.592 16.8866 177.359 17.5231 177.937C18.1596 178.516 18.9408 178.805 19.8667 178.805C21.1976 178.805 22.138 178.248 22.6877 177.135H25.3568C24.9951 178.234 24.3369 179.138 23.3821 179.847C22.4418 180.541 21.27 180.889 19.8667 180.889C18.7238 180.889 17.6967 180.635 16.7853 180.129C15.8884 179.608 15.1795 178.885 14.6587 177.959C14.1524 177.019 13.8992 175.934 13.8992 174.704C13.8992 173.474 14.1451 172.397 14.637 171.471C15.1433 170.531 15.845 169.807 16.7419 169.301C17.6533 168.795 18.6949 168.541 19.8667 168.541C20.9951 168.541 22.0005 168.787 22.883 169.279C23.7655 169.771 24.4526 170.465 24.9445 171.362C25.4364 172.245 25.6823 173.265 25.6823 174.422ZM23.1 173.641C23.0855 172.729 22.76 171.999 22.1235 171.449C21.487 170.899 20.6985 170.625 19.7582 170.625C18.9047 170.625 18.1741 170.899 17.5665 171.449C16.9589 171.984 16.5972 172.715 16.4815 173.641H23.1ZM31.0029 170.755V177.373C31.0029 177.822 31.1041 178.147 31.3067 178.35C31.5237 178.538 31.8853 178.632 32.3917 178.632H33.9107V180.693H31.9577C30.8437 180.693 29.9902 180.433 29.3971 179.912C28.8039 179.391 28.5074 178.545 28.5074 177.373V170.755H27.0969V168.737H28.5074V165.764H31.0029V168.737H33.9107V170.755H31.0029ZM50.9199 177.612H44.6052L43.5202 180.693H40.9379L46.3412 165.59H49.2056L54.6089 180.693H52.0049L50.9199 177.612ZM50.2255 175.594L47.7734 168.585L45.2996 175.594H50.2255Z" fill="white"/>
<path d="M6.5968 227.845C5.58413 227.845 4.67273 227.672 3.8626 227.324C3.05247 226.963 2.41593 226.456 1.953 225.805C1.49007 225.154 1.2586 224.395 1.2586 223.527H3.906C3.96387 224.178 4.21703 224.713 4.6655 225.133C5.12843 225.552 5.7722 225.762 6.5968 225.762C7.45033 225.762 8.1158 225.56 8.5932 225.154C9.0706 224.735 9.3093 224.2 9.3093 223.549C9.3093 223.042 9.1574 222.63 8.8536 222.312C8.56427 221.993 8.19537 221.748 7.7469 221.574C7.3129 221.4 6.7053 221.212 5.9241 221.01C4.94037 220.749 4.13747 220.489 3.5154 220.229C2.9078 219.954 2.387 219.534 1.953 218.97C1.519 218.406 1.302 217.653 1.302 216.713C1.302 215.845 1.519 215.086 1.953 214.435C2.387 213.784 2.9946 213.285 3.7758 212.937C4.557 212.59 5.46117 212.417 6.4883 212.417C7.94943 212.417 9.14293 212.785 10.0688 213.523C11.0091 214.247 11.5299 215.245 11.6312 216.518H8.897C8.8536 215.968 8.5932 215.498 8.1158 215.107C7.6384 214.717 7.0091 214.521 6.2279 214.521C5.51903 214.521 4.94037 214.702 4.4919 215.064C4.04343 215.426 3.8192 215.946 3.8192 216.626C3.8192 217.089 3.95663 217.473 4.2315 217.776C4.52083 218.066 4.8825 218.297 5.3165 218.471C5.7505 218.644 6.34363 218.833 7.0959 219.035C8.0941 219.31 8.90423 219.585 9.5263 219.86C10.1628 220.135 10.6981 220.561 11.1321 221.14C11.5806 221.704 11.8048 222.464 11.8048 223.418C11.8048 224.185 11.595 224.909 11.1755 225.588C10.7704 226.268 10.1701 226.818 9.3744 227.238C8.5932 227.643 7.66733 227.845 6.5968 227.845ZM17.1976 217.494C17.6171 216.945 18.1886 216.482 18.9119 216.106C19.6352 215.729 20.4526 215.541 21.364 215.541C22.4056 215.541 23.3532 215.802 24.2067 216.323C25.0747 216.829 25.7546 217.545 26.2465 218.471C26.7384 219.397 26.9843 220.46 26.9843 221.661C26.9843 222.861 26.7384 223.939 26.2465 224.894C25.7546 225.834 25.0747 226.572 24.2067 227.107C23.3532 227.628 22.4056 227.889 21.364 227.889C20.4526 227.889 19.6425 227.708 18.9336 227.346C18.2247 226.97 17.6461 226.507 17.1976 225.957V233.379H14.7238V215.737H17.1976V217.494ZM24.4671 221.661C24.4671 220.836 24.2935 220.127 23.9463 219.534C23.6136 218.927 23.1651 218.471 22.6009 218.167C22.0512 217.849 21.458 217.69 20.8215 217.69C20.1994 217.69 19.6063 217.849 19.0421 218.167C18.4924 218.485 18.0439 218.948 17.6967 219.556C17.364 220.163 17.1976 220.88 17.1976 221.704C17.1976 222.529 17.364 223.252 17.6967 223.874C18.0439 224.482 18.4924 224.945 19.0421 225.263C19.6063 225.581 20.1994 225.74 20.8215 225.74C21.458 225.74 22.0512 225.581 22.6009 225.263C23.1651 224.93 23.6136 224.453 23.9463 223.831C24.2935 223.209 24.4671 222.485 24.4671 221.661ZM40.3891 221.422C40.3891 221.871 40.3602 222.276 40.3023 222.637H31.1666C31.239 223.592 31.5934 224.359 32.2299 224.937C32.8665 225.516 33.6477 225.805 34.5735 225.805C35.9045 225.805 36.8448 225.248 37.3945 224.135H40.0636C39.702 225.234 39.0437 226.138 38.0889 226.847C37.1486 227.541 35.9768 227.889 34.5735 227.889C33.4307 227.889 32.4035 227.635 31.4921 227.129C30.5952 226.608 29.8863 225.885 29.3655 224.959C28.8592 224.019 28.606 222.934 28.606 221.704C28.606 220.474 28.852 219.397 29.3438 218.471C29.8502 217.531 30.5518 216.807 31.4487 216.301C32.3601 215.795 33.4017 215.541 34.5735 215.541C35.7019 215.541 36.7074 215.787 37.5898 216.279C38.4723 216.771 39.1595 217.465 39.6513 218.362C40.1432 219.245 40.3891 220.265 40.3891 221.422ZM37.8068 220.641C37.7924 219.729 37.4669 218.999 36.8303 218.449C36.1938 217.899 35.4054 217.625 34.465 217.625C33.6115 217.625 32.8809 217.899 32.2733 218.449C31.6657 218.984 31.3041 219.715 31.1883 220.641H37.8068ZM41.999 221.704C41.999 220.474 42.2449 219.397 42.7368 218.471C43.2431 217.531 43.9375 216.807 44.82 216.301C45.7025 215.795 46.7151 215.541 47.858 215.541C49.3047 215.541 50.4982 215.889 51.4385 216.583C52.3933 217.263 53.0371 218.239 53.3698 219.512H50.7007C50.4837 218.919 50.1365 218.456 49.6591 218.124C49.1817 217.791 48.5813 217.625 47.858 217.625C46.8453 217.625 46.0352 217.986 45.4276 218.71C44.8345 219.418 44.5379 220.417 44.5379 221.704C44.5379 222.992 44.8345 223.997 45.4276 224.72C46.0352 225.444 46.8453 225.805 47.858 225.805C49.2902 225.805 50.2378 225.176 50.7007 223.918H53.3698C53.0226 225.133 52.3716 226.102 51.4168 226.825C50.462 227.534 49.2757 227.889 47.858 227.889C46.7151 227.889 45.7025 227.635 44.82 227.129C43.9375 226.608 43.2431 225.885 42.7368 224.959C42.2449 224.019 41.999 222.934 41.999 221.704ZM57.0937 214.153C56.6453 214.153 56.2691 214.001 55.9653 213.697C55.6615 213.393 55.5096 213.017 55.5096 212.568C55.5096 212.12 55.6615 211.744 55.9653 211.44C56.2691 211.136 56.6453 210.984 57.0937 210.984C57.5277 210.984 57.8966 211.136 58.2004 211.44C58.5042 211.744 58.6561 212.12 58.6561 212.568C58.6561 213.017 58.5042 213.393 58.2004 213.697C57.8966 214.001 57.5277 214.153 57.0937 214.153ZM58.3089 215.737V227.693H55.8351V215.737H58.3089ZM66.5695 217.755H64.3561V227.693H61.8606V217.755H60.4501V215.737H61.8606V214.89C61.8606 213.516 62.2223 212.518 62.9456 211.896C63.6834 211.259 64.8335 210.941 66.3959 210.941V213.002C65.6436 213.002 65.1156 213.147 64.8118 213.436C64.508 213.711 64.3561 214.196 64.3561 214.89V215.737H66.5695V217.755ZM70.0205 214.153C69.572 214.153 69.1959 214.001 68.8921 213.697C68.5883 213.393 68.4364 213.017 68.4364 212.568C68.4364 212.12 68.5883 211.744 68.8921 211.44C69.1959 211.136 69.572 210.984 70.0205 210.984C70.4545 210.984 70.8234 211.136 71.1272 211.44C71.431 211.744 71.5829 212.12 71.5829 212.568C71.5829 213.017 71.431 213.393 71.1272 213.697C70.8234 214.001 70.4545 214.153 70.0205 214.153ZM71.2357 215.737V227.693H68.7619V215.737H71.2357ZM73.659 221.704C73.659 220.474 73.9049 219.397 74.3968 218.471C74.9031 217.531 75.5975 216.807 76.48 216.301C77.3624 215.795 78.3751 215.541 79.518 215.541C80.9646 215.541 82.1581 215.889 83.0985 216.583C84.0533 217.263 84.697 218.239 85.0298 219.512H82.3607C82.1437 218.919 81.7965 218.456 81.3191 218.124C80.8417 217.791 80.2413 217.625 79.518 217.625C78.5053 217.625 77.6952 217.986 77.0876 218.71C76.4944 219.418 76.1979 220.417 76.1979 221.704C76.1979 222.992 76.4944 223.997 77.0876 224.72C77.6952 225.444 78.5053 225.805 79.518 225.805C80.9502 225.805 81.8977 225.176 82.3607 223.918H85.0298C84.6826 225.133 84.0316 226.102 83.0768 226.825C82.122 227.534 80.9357 227.889 79.518 227.889C78.3751 227.889 77.3624 227.635 76.48 227.129C75.5975 226.608 74.9031 225.885 74.3968 224.959C73.9049 224.019 73.659 222.934 73.659 221.704ZM102.224 224.612H95.9096L94.8246 227.693H92.2423L97.6456 212.59H100.51L105.913 227.693H103.309L102.224 224.612ZM101.53 222.594L99.0778 215.585L96.604 222.594H101.53ZM110.736 217.473C111.098 216.865 111.576 216.395 112.169 216.062C112.776 215.715 113.492 215.541 114.317 215.541V218.102H113.688C112.718 218.102 111.981 218.348 111.474 218.84C110.982 219.332 110.736 220.185 110.736 221.4V227.693H108.263V215.737H110.736V217.473ZM119.065 217.473C119.426 216.865 119.904 216.395 120.497 216.062C121.104 215.715 121.821 215.541 122.645 215.541V218.102H122.016C121.047 218.102 120.309 218.348 119.802 218.84C119.311 219.332 119.065 220.185 119.065 221.4V227.693H116.591V215.737H119.065V217.473ZM124.095 221.661C124.095 220.46 124.34 219.397 124.832 218.471C125.339 217.545 126.019 216.829 126.872 216.323C127.74 215.802 128.695 215.541 129.737 215.541C130.677 215.541 131.494 215.729 132.189 216.106C132.897 216.467 133.462 216.923 133.881 217.473V215.737H136.377V227.693H133.881V225.914C133.462 226.478 132.89 226.948 132.167 227.324C131.444 227.701 130.619 227.889 129.693 227.889C128.666 227.889 127.726 227.628 126.872 227.107C126.019 226.572 125.339 225.834 124.832 224.894C124.34 223.939 124.095 222.861 124.095 221.661ZM133.881 221.704C133.881 220.88 133.708 220.163 133.36 219.556C133.028 218.948 132.586 218.485 132.037 218.167C131.487 217.849 130.894 217.69 130.257 217.69C129.621 217.69 129.028 217.849 128.478 218.167C127.928 218.471 127.48 218.927 127.133 219.534C126.8 220.127 126.633 220.836 126.633 221.661C126.633 222.485 126.8 223.209 127.133 223.831C127.48 224.453 127.928 224.93 128.478 225.263C129.042 225.581 129.635 225.74 130.257 225.74C130.894 225.74 131.487 225.581 132.037 225.263C132.586 224.945 133.028 224.482 133.36 223.874C133.708 223.252 133.881 222.529 133.881 221.704ZM145.659 215.541C146.599 215.541 147.438 215.737 148.176 216.127C148.928 216.518 149.514 217.097 149.933 217.863C150.353 218.63 150.563 219.556 150.563 220.641V227.693H148.111V221.01C148.111 219.939 147.843 219.122 147.308 218.558C146.772 217.979 146.042 217.69 145.116 217.69C144.19 217.69 143.452 217.979 142.903 218.558C142.367 219.122 142.1 219.939 142.1 221.01V227.693H139.626V215.737H142.1V217.104C142.505 216.612 143.018 216.229 143.64 215.954C144.277 215.679 144.95 215.541 145.659 215.541ZM158.536 215.541C159.462 215.541 160.279 215.729 160.988 216.106C161.711 216.467 162.275 216.923 162.68 217.473V215.737H165.176V227.889C165.176 228.988 164.944 229.965 164.481 230.818C164.019 231.686 163.346 232.366 162.463 232.858C161.595 233.35 160.554 233.596 159.339 233.596C157.718 233.596 156.373 233.212 155.302 232.446C154.232 231.693 153.624 230.666 153.48 229.364H155.932C156.12 229.986 156.518 230.485 157.125 230.862C157.747 231.252 158.485 231.447 159.339 231.447C160.337 231.447 161.14 231.144 161.747 230.536C162.369 229.928 162.68 229.046 162.68 227.889V225.892C162.261 226.456 161.689 226.934 160.966 227.324C160.257 227.701 159.447 227.889 158.536 227.889C157.494 227.889 156.539 227.628 155.671 227.107C154.818 226.572 154.138 225.834 153.631 224.894C153.14 223.939 152.894 222.861 152.894 221.661C152.894 220.46 153.14 219.397 153.631 218.471C154.138 217.545 154.818 216.829 155.671 216.323C156.539 215.802 157.494 215.541 158.536 215.541ZM162.68 221.704C162.68 220.88 162.507 220.163 162.16 219.556C161.827 218.948 161.386 218.485 160.836 218.167C160.286 217.849 159.693 217.69 159.056 217.69C158.42 217.69 157.827 217.849 157.277 218.167C156.727 218.471 156.279 218.927 155.932 219.534C155.599 220.127 155.433 220.836 155.433 221.661C155.433 222.485 155.599 223.209 155.932 223.831C156.279 224.453 156.727 224.93 157.277 225.263C157.841 225.581 158.434 225.74 159.056 225.74C159.693 225.74 160.286 225.581 160.836 225.263C161.386 224.945 161.827 224.482 162.16 223.874C162.507 223.252 162.68 222.529 162.68 221.704ZM179.384 221.422C179.384 221.871 179.355 222.276 179.297 222.637H170.161C170.233 223.592 170.588 224.359 171.224 224.937C171.861 225.516 172.642 225.805 173.568 225.805C174.899 225.805 175.839 225.248 176.389 224.135H179.058C178.696 225.234 178.038 226.138 177.083 226.847C176.143 227.541 174.971 227.889 173.568 227.889C172.425 227.889 171.398 227.635 170.487 227.129C169.59 226.608 168.881 225.885 168.36 224.959C167.854 224.019 167.6 222.934 167.6 221.704C167.6 220.474 167.846 219.397 168.338 218.471C168.845 217.531 169.546 216.807 170.443 216.301C171.355 215.795 172.396 215.541 173.568 215.541C174.696 215.541 175.702 215.787 176.584 216.279C177.467 216.771 178.154 217.465 178.646 218.362C179.138 219.245 179.384 220.265 179.384 221.422ZM176.801 220.641C176.787 219.729 176.461 218.999 175.825 218.449C175.188 217.899 174.4 217.625 173.459 217.625C172.606 217.625 171.875 217.899 171.268 218.449C170.66 218.984 170.299 219.715 170.183 220.641H176.801ZM196.292 215.541C197.232 215.541 198.071 215.737 198.809 216.127C199.561 216.518 200.147 217.097 200.567 217.863C201.001 218.63 201.218 219.556 201.218 220.641V227.693H198.766V221.01C198.766 219.939 198.498 219.122 197.963 218.558C197.428 217.979 196.697 217.69 195.771 217.69C194.845 217.69 194.107 217.979 193.558 218.558C193.022 219.122 192.755 219.939 192.755 221.01V227.693H190.303V221.01C190.303 219.939 190.035 219.122 189.5 218.558C188.965 217.979 188.234 217.69 187.308 217.69C186.382 217.69 185.644 217.979 185.095 218.558C184.559 219.122 184.292 219.939 184.292 221.01V227.693H181.818V215.737H184.292V217.104C184.697 216.612 185.21 216.229 185.833 215.954C186.455 215.679 187.12 215.541 187.829 215.541C188.784 215.541 189.637 215.744 190.39 216.149C191.142 216.554 191.72 217.14 192.126 217.907C192.487 217.183 193.051 216.612 193.818 216.192C194.585 215.758 195.409 215.541 196.292 215.541ZM215.324 221.422C215.324 221.871 215.295 222.276 215.237 222.637H206.102C206.174 223.592 206.528 224.359 207.165 224.937C207.802 225.516 208.583 225.805 209.509 225.805C210.84 225.805 211.78 225.248 212.33 224.135H214.999C214.637 225.234 213.979 226.138 213.024 226.847C212.084 227.541 210.912 227.889 209.509 227.889C208.366 227.889 207.339 227.635 206.427 227.129C205.53 226.608 204.821 225.885 204.301 224.959C203.794 224.019 203.541 222.934 203.541 221.704C203.541 220.474 203.787 219.397 204.279 218.471C204.785 217.531 205.487 216.807 206.384 216.301C207.295 215.795 208.337 215.541 209.509 215.541C210.637 215.541 211.642 215.787 212.525 216.279C213.407 216.771 214.095 217.465 214.586 218.362C215.078 219.245 215.324 220.265 215.324 221.422ZM212.742 220.641C212.727 219.729 212.402 218.999 211.765 218.449C211.129 217.899 210.34 217.625 209.4 217.625C208.547 217.625 207.816 217.899 207.208 218.449C206.601 218.984 206.239 219.715 206.123 220.641H212.742ZM223.791 215.541C224.732 215.541 225.571 215.737 226.308 216.127C227.061 216.518 227.647 217.097 228.066 217.863C228.486 218.63 228.695 219.556 228.695 220.641V227.693H226.243V221.01C226.243 219.939 225.976 219.122 225.44 218.558C224.905 217.979 224.175 217.69 223.249 217.69C222.323 217.69 221.585 217.979 221.035 218.558C220.5 219.122 220.232 219.939 220.232 221.01V227.693H217.759V215.737H220.232V217.104C220.638 216.612 221.151 216.229 221.773 215.954C222.41 215.679 223.082 215.541 223.791 215.541ZM234.737 217.755V224.373C234.737 224.822 234.838 225.147 235.041 225.35C235.258 225.538 235.62 225.632 236.126 225.632H237.645V227.693H235.692C234.578 227.693 233.724 227.433 233.131 226.912C232.538 226.391 232.242 225.545 232.242 224.373V217.755H230.831V215.737H232.242V212.764H234.737V215.737H237.645V217.755H234.737ZM250.748 227.889C249.62 227.889 248.6 227.635 247.688 227.129C246.777 226.608 246.061 225.885 245.54 224.959C245.019 224.019 244.759 222.934 244.759 221.704C244.759 220.489 245.027 219.411 245.562 218.471C246.097 217.531 246.828 216.807 247.754 216.301C248.679 215.795 249.714 215.541 250.857 215.541C251.999 215.541 253.034 215.795 253.96 216.301C254.886 216.807 255.616 217.531 256.151 218.471C256.687 219.411 256.954 220.489 256.954 221.704C256.954 222.919 256.679 223.997 256.13 224.937C255.58 225.878 254.828 226.608 253.873 227.129C252.933 227.635 251.891 227.889 250.748 227.889ZM250.748 225.74C251.385 225.74 251.978 225.588 252.528 225.285C253.092 224.981 253.547 224.525 253.895 223.918C254.242 223.31 254.415 222.572 254.415 221.704C254.415 220.836 254.249 220.106 253.916 219.512C253.584 218.905 253.142 218.449 252.593 218.145C252.043 217.842 251.45 217.69 250.813 217.69C250.177 217.69 249.584 217.842 249.034 218.145C248.499 218.449 248.072 218.905 247.754 219.512C247.435 220.106 247.276 220.836 247.276 221.704C247.276 222.992 247.602 223.99 248.253 224.699C248.918 225.393 249.75 225.74 250.748 225.74ZM261.874 217.473C262.235 216.865 262.713 216.395 263.306 216.062C263.913 215.715 264.63 215.541 265.454 215.541V218.102H264.825C263.856 218.102 263.118 218.348 262.611 218.84C262.12 219.332 261.874 220.185 261.874 221.4V227.693H259.4V215.737H261.874V217.473ZM278.096 221.726L283.607 227.693H280.266L275.839 222.55V227.693H273.365V211.635H275.839V220.966L280.179 215.737H283.607L278.096 221.726ZM296.339 221.422C296.339 221.871 296.31 222.276 296.252 222.637H287.116C287.189 223.592 287.543 224.359 288.18 224.937C288.816 225.516 289.597 225.805 290.523 225.805C291.854 225.805 292.795 225.248 293.344 224.135H296.013C295.652 225.234 294.994 226.138 294.039 226.847C293.098 227.541 291.927 227.889 290.523 227.889C289.38 227.889 288.353 227.635 287.442 227.129C286.545 226.608 285.836 225.885 285.315 224.959C284.809 224.019 284.556 222.934 284.556 221.704C284.556 220.474 284.802 219.397 285.294 218.471C285.8 217.531 286.502 216.807 287.399 216.301C288.31 215.795 289.352 215.541 290.523 215.541C291.652 215.541 292.657 215.787 293.54 216.279C294.422 216.771 295.109 217.465 295.601 218.362C296.093 219.245 296.339 220.265 296.339 221.422ZM293.757 220.641C293.742 219.729 293.417 218.999 292.78 218.449C292.144 217.899 291.355 217.625 290.415 217.625C289.561 217.625 288.831 217.899 288.223 218.449C287.616 218.984 287.254 219.715 287.138 220.641H293.757ZM309.537 215.737L302.202 233.314H299.641L302.072 227.498L297.363 215.737H300.119L303.482 224.851L306.976 215.737H309.537Z" fill="white"/>
<rect y="250.693" width="36.3106" height="57.6936" rx="7.88592" fill="#455D72"/>
<path d="M14.8823 288.208H25.7543V291.54H10.3383V288.544L21.1766 271.479H10.3383V268.147H25.7543V271.142L14.8823 288.208Z" fill="white"/>
<rect x="51.6977" y="250.693" width="38.3106" height="57.6936" rx="7.88592" fill="#455D72"/>
<path d="M80.2121 268.147L72.4704 283.058V291.54H68.6332V283.058L60.8579 268.147H65.1326L70.5518 279.625L75.971 268.147H80.2121Z" fill="white"/>
<rect x="105.395" y="250.693" width="40.3106" height="57.6936" rx="7.88592" fill="#455D72"/>
<path d="M127.313 279.86L134.583 291.54H130.275L124.99 283.058L120.042 291.54H115.767L123.038 279.86L115.734 268.147H120.042L125.36 276.696L130.342 268.147H134.617L127.313 279.86Z" fill="white"/>
<rect x="161.093" y="250.693" width="51.3106" height="57.6936" rx="7.88592" fill="#455D72"/>
<path d="M202.735 268.147L195.801 291.54H191.459L186.545 273.835L181.327 291.54L177.019 291.574L170.388 268.147H174.461L179.308 287.198L184.559 268.147H188.867L193.748 287.097L198.628 268.147H202.735Z" fill="white"/>
<rect x="227.791" y="250.693" width="41.3106" height="57.6936" rx="7.88592" fill="#455D72"/>
<path d="M259.133 268.147L250.348 291.54H245.904L237.086 268.147H241.192L248.126 287.602L255.093 268.147H259.133Z" fill="white"/>
<rect x="284.489" y="250.693" width="41.3106" height="57.6936" rx="7.88592" fill="#455D72"/>
<path d="M299.472 268.147V283.058C299.472 284.831 299.932 286.166 300.852 287.063C301.794 287.961 303.096 288.41 304.756 288.41C306.439 288.41 307.741 287.961 308.661 287.063C309.603 286.166 310.075 284.831 310.075 283.058V268.147H313.912V282.991C313.912 284.898 313.497 286.514 312.666 287.838C311.836 289.161 310.725 290.149 309.334 290.8C307.943 291.45 306.406 291.776 304.723 291.776C303.04 291.776 301.503 291.45 300.111 290.8C298.743 290.149 297.654 289.161 296.847 287.838C296.039 286.514 295.635 284.898 295.635 282.991V268.147H299.472Z" fill="white"/>
<rect x="341.186" y="250.693" width="36.3106" height="57.6936" rx="7.88592" fill="#455D72"/>
<path d="M367.479 268.147V271.277H361.252V291.54H357.415V271.277H351.154V268.147H367.479Z" fill="white"/>
<rect x="392.884" y="250.693" width="38.3106" height="57.6936" rx="7.88592" fill="#455D72"/>
<path d="M411.772 291.776C410.201 291.776 408.787 291.506 407.531 290.968C406.274 290.407 405.287 289.621 404.569 288.612C403.851 287.602 403.492 286.424 403.492 285.077H407.598C407.688 286.087 408.081 286.917 408.776 287.568C409.494 288.219 410.493 288.544 411.772 288.544C413.096 288.544 414.128 288.23 414.869 287.602C415.609 286.951 415.979 286.121 415.979 285.111C415.979 284.326 415.744 283.686 415.272 283.193C414.824 282.699 414.251 282.317 413.556 282.048C412.883 281.779 411.94 281.487 410.728 281.173C409.203 280.769 407.957 280.365 406.992 279.961C406.05 279.535 405.242 278.884 404.569 278.009C403.896 277.134 403.559 275.967 403.559 274.508C403.559 273.162 403.896 271.984 404.569 270.974C405.242 269.964 406.184 269.19 407.396 268.652C408.608 268.113 410.01 267.844 411.604 267.844C413.87 267.844 415.721 268.416 417.157 269.56C418.616 270.682 419.424 272.231 419.581 274.205H415.34C415.272 273.353 414.869 272.623 414.128 272.018C413.388 271.412 412.411 271.109 411.2 271.109C410.1 271.109 409.203 271.389 408.507 271.95C407.811 272.511 407.463 273.319 407.463 274.374C407.463 275.092 407.677 275.686 408.103 276.158C408.552 276.606 409.113 276.966 409.786 277.235C410.459 277.504 411.379 277.796 412.546 278.11C414.094 278.536 415.351 278.963 416.316 279.389C417.303 279.815 418.134 280.477 418.807 281.375C419.502 282.25 419.85 283.428 419.85 284.909C419.85 286.098 419.525 287.22 418.874 288.275C418.246 289.33 417.314 290.182 416.08 290.833C414.869 291.462 413.432 291.776 411.772 291.776Z" fill="white"/>
<rect x="446.582" y="250.693" width="39.3106" height="57.6936" rx="7.88592" fill="#455D72"/>
<path d="M469.913 291.54L464.527 282.183H461.599V291.54H457.762V268.147H465.84C467.635 268.147 469.15 268.461 470.384 269.089C471.64 269.718 472.572 270.559 473.178 271.614C473.806 272.668 474.12 273.846 474.12 275.148C474.12 276.674 473.671 278.065 472.774 279.322C471.898 280.556 470.541 281.397 468.701 281.846L474.49 291.54H469.913ZM461.599 279.12H465.84C467.276 279.12 468.353 278.761 469.071 278.043C469.812 277.325 470.182 276.36 470.182 275.148C470.182 273.936 469.823 272.994 469.105 272.321C468.387 271.625 467.298 271.277 465.84 271.277H461.599V279.12Z" fill="white"/>
<rect x="501.28" y="250.693" width="44.3106" height="57.6936" rx="7.88592" fill="#455D72"/>
<path d="M530.568 295.781L526.462 291.338C525.452 291.63 524.341 291.776 523.129 291.776C520.953 291.776 518.944 291.271 517.104 290.261C515.287 289.229 513.839 287.804 512.762 285.986C511.708 284.146 511.18 282.082 511.18 279.793C511.18 277.504 511.708 275.451 512.762 273.633C513.839 271.816 515.287 270.402 517.104 269.392C518.944 268.36 520.953 267.844 523.129 267.844C525.328 267.844 527.337 268.36 529.154 269.392C530.994 270.402 532.442 271.816 533.496 273.633C534.551 275.451 535.078 277.504 535.078 279.793C535.078 281.947 534.607 283.899 533.665 285.65C532.745 287.377 531.466 288.769 529.828 289.823L535.449 295.781H530.568ZM515.118 279.793C515.118 281.521 515.455 283.047 516.128 284.371C516.824 285.672 517.777 286.682 518.989 287.4C520.201 288.096 521.581 288.443 523.129 288.443C524.678 288.443 526.058 288.096 527.269 287.4C528.481 286.682 529.424 285.672 530.097 284.371C530.792 283.047 531.14 281.521 531.14 279.793C531.14 278.065 530.792 276.55 530.097 275.249C529.424 273.947 528.481 272.949 527.269 272.253C526.058 271.558 524.678 271.21 523.129 271.21C521.581 271.21 520.201 271.558 518.989 272.253C517.777 272.949 516.824 273.947 516.128 275.249C515.455 276.55 515.118 278.065 515.118 279.793Z" fill="white"/>
<rect x="560.977" y="250.693" width="38.3106" height="57.6936" rx="7.88592" fill="#455D72"/>
<path d="M588.515 275.114C588.515 276.304 588.235 277.426 587.674 278.48C587.113 279.535 586.215 280.399 584.981 281.072C583.747 281.723 582.165 282.048 580.235 282.048H575.994V291.54H572.157V268.147H580.235C582.03 268.147 583.545 268.461 584.779 269.089C586.036 269.695 586.967 270.525 587.573 271.58C588.201 272.635 588.515 273.813 588.515 275.114ZM580.235 278.918C581.694 278.918 582.782 278.592 583.5 277.942C584.218 277.268 584.577 276.326 584.577 275.114C584.577 272.556 583.13 271.277 580.235 271.277H575.994V278.918H580.235Z" fill="white"/>
<rect x="614.675" y="250.693" width="44.3106" height="57.6936" rx="7.88592" fill="#455D72"/>
<path d="M636.525 291.776C634.348 291.776 632.34 291.271 630.5 290.261C628.682 289.229 627.235 287.804 626.158 285.986C625.103 284.146 624.576 282.082 624.576 279.793C624.576 277.504 625.103 275.451 626.158 273.633C627.235 271.816 628.682 270.402 630.5 269.392C632.34 268.36 634.348 267.844 636.525 267.844C638.724 267.844 640.732 268.36 642.55 269.392C644.39 270.402 645.837 271.816 646.892 273.633C647.946 275.451 648.474 277.504 648.474 279.793C648.474 282.082 647.946 284.146 646.892 285.986C645.837 287.804 644.39 289.229 642.55 290.261C640.732 291.271 638.724 291.776 636.525 291.776ZM636.525 288.443C638.073 288.443 639.453 288.096 640.665 287.4C641.877 286.682 642.819 285.672 643.492 284.371C644.188 283.047 644.536 281.521 644.536 279.793C644.536 278.065 644.188 276.55 643.492 275.249C642.819 273.947 641.877 272.949 640.665 272.253C639.453 271.558 638.073 271.21 636.525 271.21C634.976 271.21 633.596 271.558 632.385 272.253C631.173 272.949 630.219 273.947 629.524 275.249C628.85 276.55 628.514 278.065 628.514 279.793C628.514 281.521 628.85 283.047 629.524 284.371C630.219 285.672 631.173 286.682 632.385 287.4C633.596 288.096 634.976 288.443 636.525 288.443Z" fill="white"/>
<rect x="674.373" y="250.693" width="42.3106" height="57.6936" rx="7.88592" fill="#455D72"/>
<path d="M704.772 291.54H700.935L689.39 274.071V291.54H685.553V268.113H689.39L700.935 285.549V268.113H704.772V291.54Z" fill="white"/>
<rect x="732.071" y="250.693" width="47.3106" height="57.6936" rx="7.88592" fill="#455D72"/>
<path d="M767.889 268.147V291.54H764.052V275.518L756.916 291.54H754.257L747.087 275.518V291.54H743.25V268.147H747.39L755.603 286.491L763.783 268.147H767.889Z" fill="white"/>
<rect x="794.768" y="250.693" width="32.3106" height="57.6936" rx="7.88592" fill="#455D72"/>
<path d="M809.785 288.443H817.695V291.54H805.948V268.147H809.785V288.443Z" fill="white"/>
<rect x="842.466" y="250.693" width="39.3106" height="57.6936" rx="7.88592" fill="#455D72"/>
<path d="M866.537 291.54L857.483 281.072V291.54H853.646V268.147H857.483V278.817L866.571 268.147H871.384L861.219 279.86L871.552 291.54H866.537Z" fill="white"/>
<rect x="897.164" y="250.693" width="36.3106" height="57.6936" rx="7.88592" fill="#455D72"/>
<path d="M921.1 268.147V285.01C921.1 287.097 920.461 288.746 919.182 289.958C917.925 291.17 916.264 291.776 914.2 291.776C912.136 291.776 910.464 291.17 909.185 289.958C907.928 288.746 907.3 287.097 907.3 285.01H911.171C911.193 286.042 911.451 286.861 911.945 287.467C912.461 288.073 913.213 288.376 914.2 288.376C915.187 288.376 915.939 288.073 916.455 287.467C916.971 286.839 917.229 286.02 917.229 285.01V268.147H921.1Z" fill="white"/>
<rect x="948.861" y="250.693" width="26.3106" height="57.6936" rx="7.88592" fill="#455D72"/>
<path d="M963.878 268.147V291.54H960.041V268.147H963.878Z" fill="white"/>
<rect x="990.559" y="250.693" width="41.3106" height="57.6936" rx="7.88592" fill="#455D72"/>
<path d="M1020.42 268.147V291.54H1016.58V281.308H1005.58V291.54H1001.74V268.147H1005.58V278.177H1016.58V268.147H1020.42Z" fill="white"/>
<rect x="1047.26" y="250.693" width="44.3106" height="57.6936" rx="7.88592" fill="#455D72"/>
<path d="M1075.37 274.879C1074.76 273.712 1073.92 272.837 1072.84 272.253C1071.77 271.647 1070.52 271.344 1069.11 271.344C1067.56 271.344 1066.18 271.692 1064.97 272.388C1063.75 273.083 1062.8 274.071 1062.11 275.35C1061.43 276.629 1061.1 278.11 1061.1 279.793C1061.1 281.476 1061.43 282.968 1062.11 284.27C1062.8 285.549 1063.75 286.536 1064.97 287.232C1066.18 287.927 1067.56 288.275 1069.11 288.275C1071.19 288.275 1072.89 287.692 1074.19 286.525C1075.49 285.358 1076.29 283.776 1076.58 281.779H1067.79V278.716H1080.69V281.711C1080.44 283.529 1079.79 285.201 1078.73 286.727C1077.7 288.253 1076.34 289.476 1074.66 290.396C1073 291.293 1071.15 291.742 1069.11 291.742C1066.91 291.742 1064.9 291.237 1063.08 290.227C1061.26 289.195 1059.82 287.77 1058.74 285.953C1057.68 284.135 1057.16 282.082 1057.16 279.793C1057.16 277.504 1057.68 275.451 1058.74 273.633C1059.82 271.816 1061.26 270.402 1063.08 269.392C1064.92 268.36 1066.93 267.844 1069.11 267.844C1071.6 267.844 1073.81 268.461 1075.74 269.695C1077.69 270.907 1079.1 272.635 1079.98 274.879H1075.37Z" fill="white"/>
<rect x="1106.95" y="250.693" width="35.3106" height="57.6936" rx="7.88592" fill="#455D72"/>
<path d="M1131.9 268.147V271.277H1121.97V278.177H1129.71V281.308H1121.97V291.54H1118.13V268.147H1131.9Z" fill="white"/>
<rect x="1157.65" y="250.693" width="35.3106" height="57.6936" rx="7.88592" fill="#455D72"/>
<path d="M1172.67 271.243V278.11H1180.75V281.24H1172.67V288.41H1181.76V291.54H1168.83V268.113H1181.76V271.243H1172.67Z" fill="white"/>
<rect x="1208.35" y="250.693" width="41.3106" height="57.6936" rx="7.88592" fill="#455D72"/>
<path d="M1227.17 268.147C1229.66 268.147 1231.84 268.629 1233.7 269.594C1235.59 270.537 1237.03 271.905 1238.04 273.701C1239.07 275.473 1239.59 277.549 1239.59 279.928C1239.59 282.306 1239.07 284.371 1238.04 286.121C1237.03 287.871 1235.59 289.218 1233.7 290.16C1231.84 291.08 1229.66 291.54 1227.17 291.54H1219.53V268.147H1227.17ZM1227.17 288.41C1229.91 288.41 1232.01 287.669 1233.46 286.188C1234.92 284.707 1235.65 282.62 1235.65 279.928C1235.65 277.212 1234.92 275.092 1233.46 273.566C1232.01 272.04 1229.91 271.277 1227.17 271.277H1223.37V288.41H1227.17Z" fill="white"/>
<rect x="1265.05" y="250.693" width="44.3106" height="57.6936" rx="7.88592" fill="#455D72"/>
<path d="M1274.95 279.793C1274.95 277.504 1275.48 275.451 1276.53 273.633C1277.61 271.816 1279.05 270.402 1280.87 269.392C1282.71 268.36 1284.72 267.844 1286.9 267.844C1289.39 267.844 1291.6 268.461 1293.53 269.695C1295.48 270.907 1296.89 272.635 1297.77 274.879H1293.16C1292.55 273.644 1291.71 272.724 1290.63 272.119C1289.56 271.513 1288.31 271.21 1286.9 271.21C1285.35 271.21 1283.97 271.558 1282.76 272.253C1281.55 272.949 1280.59 273.947 1279.9 275.249C1279.22 276.55 1278.89 278.065 1278.89 279.793C1278.89 281.521 1279.22 283.035 1279.9 284.337C1280.59 285.638 1281.55 286.648 1282.76 287.366C1283.97 288.062 1285.35 288.41 1286.9 288.41C1288.31 288.41 1289.56 288.107 1290.63 287.501C1291.71 286.895 1292.55 285.975 1293.16 284.741H1297.77C1296.89 286.985 1295.48 288.713 1293.53 289.924C1291.6 291.136 1289.39 291.742 1286.9 291.742C1284.7 291.742 1282.69 291.237 1280.87 290.227C1279.05 289.195 1277.61 287.77 1276.53 285.953C1275.48 284.135 1274.95 282.082 1274.95 279.793Z" fill="white"/>
<rect x="1321.86" y="250.693" width="39.3106" height="57.6936" rx="7.88592" fill="#455D72"/>
<path d="M1345.56 279.524C1346.82 279.748 1347.88 280.41 1348.76 281.51C1349.63 282.609 1350.07 283.854 1350.07 285.246C1350.07 286.435 1349.76 287.512 1349.13 288.477C1348.52 289.419 1347.64 290.171 1346.47 290.732C1345.3 291.271 1343.95 291.54 1342.4 291.54H1333.04V268.147H1341.96C1343.55 268.147 1344.92 268.416 1346.07 268.955C1347.21 269.493 1348.07 270.222 1348.66 271.142C1349.24 272.04 1349.53 273.05 1349.53 274.172C1349.53 275.518 1349.17 276.64 1348.46 277.538C1347.74 278.435 1346.77 279.097 1345.56 279.524ZM1336.88 277.975H1341.62C1342.88 277.975 1343.86 277.695 1344.55 277.134C1345.27 276.55 1345.63 275.72 1345.63 274.643C1345.63 273.588 1345.27 272.769 1344.55 272.186C1343.86 271.58 1342.88 271.277 1341.62 271.277H1336.88V277.975ZM1342.06 288.41C1343.36 288.41 1344.38 288.096 1345.12 287.467C1345.86 286.839 1346.23 285.964 1346.23 284.842C1346.23 283.697 1345.84 282.789 1345.06 282.115C1344.27 281.442 1343.23 281.106 1341.93 281.106H1336.88V288.41H1342.06Z" fill="white"/>
<rect x="1376.56" y="250.693" width="41.3106" height="57.6936" rx="7.88592" fill="#455D72"/>
<path d="M1401.84 286.76H1392.05L1390.36 291.54H1386.36L1394.74 268.113H1399.18L1407.56 291.54H1403.52L1401.84 286.76ZM1400.76 283.63L1396.96 272.758L1393.12 283.63H1400.76Z" fill="white"/>
<path d="M6.5968 365.539C5.58413 365.539 4.67273 365.366 3.8626 365.018C3.05247 364.657 2.41593 364.15 1.953 363.499C1.49007 362.848 1.2586 362.089 1.2586 361.221H3.906C3.96387 361.872 4.21703 362.407 4.6655 362.827C5.12843 363.246 5.7722 363.456 6.5968 363.456C7.45033 363.456 8.1158 363.253 8.5932 362.848C9.0706 362.429 9.3093 361.894 9.3093 361.243C9.3093 360.736 9.1574 360.324 8.8536 360.006C8.56427 359.687 8.19537 359.441 7.7469 359.268C7.3129 359.094 6.7053 358.906 5.9241 358.704C4.94037 358.443 4.13747 358.183 3.5154 357.922C2.9078 357.648 2.387 357.228 1.953 356.664C1.519 356.1 1.302 355.347 1.302 354.407C1.302 353.539 1.519 352.78 1.953 352.129C2.387 351.478 2.9946 350.978 3.7758 350.631C4.557 350.284 5.46117 350.11 6.4883 350.11C7.94943 350.11 9.14293 350.479 10.0688 351.217C11.0091 351.94 11.5299 352.939 11.6312 354.212H8.897C8.8536 353.662 8.5932 353.192 8.1158 352.801C7.6384 352.411 7.0091 352.215 6.2279 352.215C5.51903 352.215 4.94037 352.396 4.4919 352.758C4.04343 353.119 3.8192 353.64 3.8192 354.32C3.8192 354.783 3.95663 355.167 4.2315 355.47C4.52083 355.76 4.8825 355.991 5.3165 356.165C5.7505 356.338 6.34363 356.526 7.0959 356.729C8.0941 357.004 8.90423 357.279 9.5263 357.554C10.1628 357.828 10.6981 358.255 11.1321 358.834C11.5806 359.398 11.8048 360.158 11.8048 361.112C11.8048 361.879 11.595 362.602 11.1755 363.282C10.7704 363.962 10.1701 364.512 9.3744 364.932C8.5932 365.337 7.66733 365.539 6.5968 365.539ZM25.6823 359.116C25.6823 359.564 25.6534 359.969 25.5955 360.331H16.4598C16.5321 361.286 16.8866 362.053 17.5231 362.631C18.1596 363.21 18.9408 363.499 19.8667 363.499C21.1976 363.499 22.138 362.942 22.6877 361.828H25.3568C24.9951 362.928 24.3369 363.832 23.3821 364.541C22.4418 365.235 21.27 365.583 19.8667 365.583C18.7238 365.583 17.6967 365.329 16.7853 364.823C15.8884 364.302 15.1795 363.579 14.6587 362.653C14.1524 361.713 13.8992 360.628 13.8992 359.398C13.8992 358.168 14.1451 357.091 14.637 356.165C15.1433 355.224 15.845 354.501 16.7419 353.995C17.6533 353.488 18.6949 353.235 19.8667 353.235C20.9951 353.235 22.0005 353.481 22.883 353.973C23.7655 354.465 24.4526 355.159 24.9445 356.056C25.4364 356.939 25.6823 357.959 25.6823 359.116ZM23.1 358.335C23.0855 357.423 22.76 356.693 22.1235 356.143C21.487 355.593 20.6985 355.318 19.7582 355.318C18.9047 355.318 18.1741 355.593 17.5665 356.143C16.9589 356.678 16.5972 357.409 16.4815 358.335H23.1ZM31.0029 355.449V362.067C31.0029 362.516 31.1041 362.841 31.3067 363.044C31.5237 363.232 31.8853 363.326 32.3917 363.326H33.9107V365.387H31.9577C30.8437 365.387 29.9902 365.127 29.3971 364.606C28.8039 364.085 28.5074 363.239 28.5074 362.067V355.449H27.0969V353.431H28.5074V350.458H31.0029V353.431H33.9107V355.449H31.0029ZM49.9 357.64C50.7101 357.785 51.3973 358.212 51.9615 358.921C52.5257 359.629 52.8078 360.432 52.8078 361.329C52.8078 362.096 52.6053 362.79 52.2002 363.413C51.8096 364.02 51.2382 364.505 50.4859 364.866C49.7336 365.214 48.8584 365.387 47.8602 365.387H41.8276V350.306H47.5781C48.6052 350.306 49.4877 350.479 50.2255 350.827C50.9633 351.174 51.5203 351.644 51.8964 352.237C52.2725 352.816 52.4606 353.467 52.4606 354.19C52.4606 355.058 52.2291 355.781 51.7662 356.36C51.3033 356.939 50.6812 357.365 49.9 357.64ZM44.3014 356.642H47.3611C48.1712 356.642 48.8005 356.461 49.249 356.1C49.7119 355.723 49.9434 355.188 49.9434 354.494C49.9434 353.814 49.7119 353.286 49.249 352.91C48.8005 352.519 48.1712 352.324 47.3611 352.324H44.3014V356.642ZM47.6432 363.369C48.4823 363.369 49.1405 363.167 49.6179 362.762C50.0953 362.356 50.334 361.792 50.334 361.069C50.334 360.331 50.0808 359.745 49.5745 359.311C49.0682 358.877 48.3955 358.66 47.5564 358.66H44.3014V363.369H47.6432Z" fill="white"/>
<path d="M6.5968 412.539C5.58413 412.539 4.67273 412.366 3.8626 412.018C3.05247 411.657 2.41593 411.15 1.953 410.499C1.49007 409.848 1.2586 409.089 1.2586 408.221H3.906C3.96387 408.872 4.21703 409.407 4.6655 409.827C5.12843 410.246 5.7722 410.456 6.5968 410.456C7.45033 410.456 8.1158 410.253 8.5932 409.848C9.0706 409.429 9.3093 408.894 9.3093 408.243C9.3093 407.736 9.1574 407.324 8.8536 407.006C8.56427 406.687 8.19537 406.441 7.7469 406.268C7.3129 406.094 6.7053 405.906 5.9241 405.704C4.94037 405.443 4.13747 405.183 3.5154 404.922C2.9078 404.648 2.387 404.228 1.953 403.664C1.519 403.1 1.302 402.347 1.302 401.407C1.302 400.539 1.519 399.78 1.953 399.129C2.387 398.478 2.9946 397.978 3.7758 397.631C4.557 397.284 5.46117 397.11 6.4883 397.11C7.94943 397.11 9.14293 397.479 10.0688 398.217C11.0091 398.94 11.5299 399.939 11.6312 401.212H8.897C8.8536 400.662 8.5932 400.192 8.1158 399.801C7.6384 399.411 7.0091 399.215 6.2279 399.215C5.51903 399.215 4.94037 399.396 4.4919 399.758C4.04343 400.119 3.8192 400.64 3.8192 401.32C3.8192 401.783 3.95663 402.167 4.2315 402.47C4.52083 402.76 4.8825 402.991 5.3165 403.165C5.7505 403.338 6.34363 403.526 7.0959 403.729C8.0941 404.004 8.90423 404.279 9.5263 404.554C10.1628 404.828 10.6981 405.255 11.1321 405.834C11.5806 406.398 11.8048 407.158 11.8048 408.112C11.8048 408.879 11.595 409.602 11.1755 410.282C10.7704 410.962 10.1701 411.512 9.3744 411.932C8.5932 412.337 7.66733 412.539 6.5968 412.539ZM17.1976 402.188C17.6171 401.638 18.1886 401.176 18.9119 400.799C19.6352 400.423 20.4526 400.235 21.364 400.235C22.4056 400.235 23.3532 400.496 24.2067 401.016C25.0747 401.523 25.7546 402.239 26.2465 403.165C26.7384 404.091 26.9843 405.154 26.9843 406.355C26.9843 407.555 26.7384 408.633 26.2465 409.588C25.7546 410.528 25.0747 411.266 24.2067 411.801C23.3532 412.322 22.4056 412.583 21.364 412.583C20.4526 412.583 19.6425 412.402 18.9336 412.04C18.2247 411.664 17.6461 411.201 17.1976 410.651V418.073H14.7238V400.431H17.1976V402.188ZM24.4671 406.355C24.4671 405.53 24.2935 404.821 23.9463 404.228C23.6136 403.62 23.1651 403.165 22.6009 402.861C22.0512 402.543 21.458 402.384 20.8215 402.384C20.1994 402.384 19.6063 402.543 19.0421 402.861C18.4924 403.179 18.0439 403.642 17.6967 404.25C17.364 404.857 17.1976 405.573 17.1976 406.398C17.1976 407.223 17.364 407.946 17.6967 408.568C18.0439 409.176 18.4924 409.639 19.0421 409.957C19.6063 410.275 20.1994 410.434 20.8215 410.434C21.458 410.434 22.0512 410.275 22.6009 409.957C23.1651 409.624 23.6136 409.147 23.9463 408.525C24.2935 407.903 24.4671 407.179 24.4671 406.355ZM40.3891 406.116C40.3891 406.564 40.3602 406.969 40.3023 407.331H31.1666C31.239 408.286 31.5934 409.053 32.2299 409.631C32.8665 410.21 33.6477 410.499 34.5735 410.499C35.9045 410.499 36.8448 409.942 37.3945 408.828H40.0636C39.702 409.928 39.0437 410.832 38.0889 411.541C37.1486 412.235 35.9768 412.583 34.5735 412.583C33.4307 412.583 32.4035 412.329 31.4921 411.823C30.5952 411.302 29.8863 410.579 29.3655 409.653C28.8592 408.713 28.606 407.628 28.606 406.398C28.606 405.168 28.852 404.091 29.3438 403.165C29.8502 402.224 30.5518 401.501 31.4487 400.995C32.3601 400.488 33.4017 400.235 34.5735 400.235C35.7019 400.235 36.7074 400.481 37.5898 400.973C38.4723 401.465 39.1595 402.159 39.6513 403.056C40.1432 403.939 40.3891 404.959 40.3891 406.116ZM37.8068 405.335C37.7924 404.423 37.4669 403.693 36.8303 403.143C36.1938 402.593 35.4054 402.318 34.465 402.318C33.6115 402.318 32.8809 402.593 32.2733 403.143C31.6657 403.678 31.3041 404.409 31.1883 405.335H37.8068ZM41.999 406.398C41.999 405.168 42.2449 404.091 42.7368 403.165C43.2431 402.224 43.9375 401.501 44.82 400.995C45.7025 400.488 46.7151 400.235 47.858 400.235C49.3047 400.235 50.4982 400.582 51.4385 401.277C52.3933 401.957 53.0371 402.933 53.3698 404.206H50.7007C50.4837 403.613 50.1365 403.15 49.6591 402.818C49.1817 402.485 48.5813 402.318 47.858 402.318C46.8453 402.318 46.0352 402.68 45.4276 403.403C44.8345 404.112 44.5379 405.11 44.5379 406.398C44.5379 407.686 44.8345 408.691 45.4276 409.414C46.0352 410.138 46.8453 410.499 47.858 410.499C49.2902 410.499 50.2378 409.87 50.7007 408.611H53.3698C53.0226 409.827 52.3716 410.796 51.4168 411.519C50.462 412.228 49.2757 412.583 47.858 412.583C46.7151 412.583 45.7025 412.329 44.82 411.823C43.9375 411.302 43.2431 410.579 42.7368 409.653C42.2449 408.713 41.999 407.628 41.999 406.398ZM57.0937 398.846C56.6453 398.846 56.2691 398.695 55.9653 398.391C55.6615 398.087 55.5096 397.711 55.5096 397.262C55.5096 396.814 55.6615 396.438 55.9653 396.134C56.2691 395.83 56.6453 395.678 57.0937 395.678C57.5277 395.678 57.8966 395.83 58.2004 396.134C58.5042 396.438 58.6561 396.814 58.6561 397.262C58.6561 397.711 58.5042 398.087 58.2004 398.391C57.8966 398.695 57.5277 398.846 57.0937 398.846ZM58.3089 400.431V412.387H55.8351V400.431H58.3089ZM66.5695 402.449H64.3561V412.387H61.8606V402.449H60.4501V400.431H61.8606V399.584C61.8606 398.21 62.2223 397.212 62.9456 396.59C63.6834 395.953 64.8335 395.635 66.3959 395.635V397.696C65.6436 397.696 65.1156 397.841 64.8118 398.13C64.508 398.405 64.3561 398.89 64.3561 399.584V400.431H66.5695V402.449ZM70.0205 398.846C69.572 398.846 69.1959 398.695 68.8921 398.391C68.5883 398.087 68.4364 397.711 68.4364 397.262C68.4364 396.814 68.5883 396.438 68.8921 396.134C69.1959 395.83 69.572 395.678 70.0205 395.678C70.4545 395.678 70.8234 395.83 71.1272 396.134C71.431 396.438 71.5829 396.814 71.5829 397.262C71.5829 397.711 71.431 398.087 71.1272 398.391C70.8234 398.695 70.4545 398.846 70.0205 398.846ZM71.2357 400.431V412.387H68.7619V400.431H71.2357ZM73.659 406.398C73.659 405.168 73.9049 404.091 74.3968 403.165C74.9031 402.224 75.5975 401.501 76.48 400.995C77.3624 400.488 78.3751 400.235 79.518 400.235C80.9646 400.235 82.1581 400.582 83.0985 401.277C84.0533 401.957 84.697 402.933 85.0298 404.206H82.3607C82.1437 403.613 81.7965 403.15 81.3191 402.818C80.8417 402.485 80.2413 402.318 79.518 402.318C78.5053 402.318 77.6952 402.68 77.0876 403.403C76.4944 404.112 76.1979 405.11 76.1979 406.398C76.1979 407.686 76.4944 408.691 77.0876 409.414C77.6952 410.138 78.5053 410.499 79.518 410.499C80.9502 410.499 81.8977 409.87 82.3607 408.611H85.0298C84.6826 409.827 84.0316 410.796 83.0768 411.519C82.122 412.228 80.9357 412.583 79.518 412.583C78.3751 412.583 77.3624 412.329 76.48 411.823C75.5975 411.302 74.9031 410.579 74.3968 409.653C73.9049 408.713 73.659 407.628 73.659 406.398ZM102.224 409.306H95.9096L94.8246 412.387H92.2423L97.6456 397.284H100.51L105.913 412.387H103.309L102.224 409.306ZM101.53 407.288L99.0778 400.279L96.604 407.288H101.53ZM110.736 402.167C111.098 401.559 111.576 401.089 112.169 400.756C112.776 400.409 113.492 400.235 114.317 400.235V402.796H113.688C112.718 402.796 111.981 403.042 111.474 403.534C110.982 404.025 110.736 404.879 110.736 406.094V412.387H108.263V400.431H110.736V402.167ZM119.065 402.167C119.426 401.559 119.904 401.089 120.497 400.756C121.104 400.409 121.821 400.235 122.645 400.235V402.796H122.016C121.047 402.796 120.309 403.042 119.802 403.534C119.311 404.025 119.065 404.879 119.065 406.094V412.387H116.591V400.431H119.065V402.167ZM124.095 406.355C124.095 405.154 124.34 404.091 124.832 403.165C125.339 402.239 126.019 401.523 126.872 401.016C127.74 400.496 128.695 400.235 129.737 400.235C130.677 400.235 131.494 400.423 132.189 400.799C132.897 401.161 133.462 401.617 133.881 402.167V400.431H136.377V412.387H133.881V410.608C133.462 411.172 132.89 411.642 132.167 412.018C131.444 412.394 130.619 412.583 129.693 412.583C128.666 412.583 127.726 412.322 126.872 411.801C126.019 411.266 125.339 410.528 124.832 409.588C124.34 408.633 124.095 407.555 124.095 406.355ZM133.881 406.398C133.881 405.573 133.708 404.857 133.36 404.25C133.028 403.642 132.586 403.179 132.037 402.861C131.487 402.543 130.894 402.384 130.257 402.384C129.621 402.384 129.028 402.543 128.478 402.861C127.928 403.165 127.48 403.62 127.133 404.228C126.8 404.821 126.633 405.53 126.633 406.355C126.633 407.179 126.8 407.903 127.133 408.525C127.48 409.147 127.928 409.624 128.478 409.957C129.042 410.275 129.635 410.434 130.257 410.434C130.894 410.434 131.487 410.275 132.037 409.957C132.586 409.639 133.028 409.176 133.36 408.568C133.708 407.946 133.881 407.223 133.881 406.398ZM145.659 400.235C146.599 400.235 147.438 400.431 148.176 400.821C148.928 401.212 149.514 401.79 149.933 402.557C150.353 403.324 150.563 404.25 150.563 405.335V412.387H148.111V405.704C148.111 404.633 147.843 403.816 147.308 403.252C146.772 402.673 146.042 402.384 145.116 402.384C144.19 402.384 143.452 402.673 142.903 403.252C142.367 403.816 142.1 404.633 142.1 405.704V412.387H139.626V400.431H142.1V401.798C142.505 401.306 143.018 400.922 143.64 400.648C144.277 400.373 144.95 400.235 145.659 400.235ZM158.536 400.235C159.462 400.235 160.279 400.423 160.988 400.799C161.711 401.161 162.275 401.617 162.68 402.167V400.431H165.176V412.583C165.176 413.682 164.944 414.658 164.481 415.512C164.019 416.38 163.346 417.06 162.463 417.552C161.595 418.044 160.554 418.29 159.339 418.29C157.718 418.29 156.373 417.906 155.302 417.14C154.232 416.387 153.624 415.36 153.48 414.058H155.932C156.12 414.68 156.518 415.179 157.125 415.555C157.747 415.946 158.485 416.141 159.339 416.141C160.337 416.141 161.14 415.838 161.747 415.23C162.369 414.622 162.68 413.74 162.68 412.583V410.586C162.261 411.15 161.689 411.628 160.966 412.018C160.257 412.394 159.447 412.583 158.536 412.583C157.494 412.583 156.539 412.322 155.671 411.801C154.818 411.266 154.138 410.528 153.631 409.588C153.14 408.633 152.894 407.555 152.894 406.355C152.894 405.154 153.14 404.091 153.631 403.165C154.138 402.239 154.818 401.523 155.671 401.016C156.539 400.496 157.494 400.235 158.536 400.235ZM162.68 406.398C162.68 405.573 162.507 404.857 162.16 404.25C161.827 403.642 161.386 403.179 160.836 402.861C160.286 402.543 159.693 402.384 159.056 402.384C158.42 402.384 157.827 402.543 157.277 402.861C156.727 403.165 156.279 403.62 155.932 404.228C155.599 404.821 155.433 405.53 155.433 406.355C155.433 407.179 155.599 407.903 155.932 408.525C156.279 409.147 156.727 409.624 157.277 409.957C157.841 410.275 158.434 410.434 159.056 410.434C159.693 410.434 160.286 410.275 160.836 409.957C161.386 409.639 161.827 409.176 162.16 408.568C162.507 407.946 162.68 407.223 162.68 406.398ZM179.384 406.116C179.384 406.564 179.355 406.969 179.297 407.331H170.161C170.233 408.286 170.588 409.053 171.224 409.631C171.861 410.21 172.642 410.499 173.568 410.499C174.899 410.499 175.839 409.942 176.389 408.828H179.058C178.696 409.928 178.038 410.832 177.083 411.541C176.143 412.235 174.971 412.583 173.568 412.583C172.425 412.583 171.398 412.329 170.487 411.823C169.59 411.302 168.881 410.579 168.36 409.653C167.854 408.713 167.6 407.628 167.6 406.398C167.6 405.168 167.846 404.091 168.338 403.165C168.845 402.224 169.546 401.501 170.443 400.995C171.355 400.488 172.396 400.235 173.568 400.235C174.696 400.235 175.702 400.481 176.584 400.973C177.467 401.465 178.154 402.159 178.646 403.056C179.138 403.939 179.384 404.959 179.384 406.116ZM176.801 405.335C176.787 404.423 176.461 403.693 175.825 403.143C175.188 402.593 174.4 402.318 173.459 402.318C172.606 402.318 171.875 402.593 171.268 403.143C170.66 403.678 170.299 404.409 170.183 405.335H176.801ZM196.292 400.235C197.232 400.235 198.071 400.431 198.809 400.821C199.561 401.212 200.147 401.79 200.567 402.557C201.001 403.324 201.218 404.25 201.218 405.335V412.387H198.766V405.704C198.766 404.633 198.498 403.816 197.963 403.252C197.428 402.673 196.697 402.384 195.771 402.384C194.845 402.384 194.107 402.673 193.558 403.252C193.022 403.816 192.755 404.633 192.755 405.704V412.387H190.303V405.704C190.303 404.633 190.035 403.816 189.5 403.252C188.965 402.673 188.234 402.384 187.308 402.384C186.382 402.384 185.644 402.673 185.095 403.252C184.559 403.816 184.292 404.633 184.292 405.704V412.387H181.818V400.431H184.292V401.798C184.697 401.306 185.21 400.922 185.833 400.648C186.455 400.373 187.12 400.235 187.829 400.235C188.784 400.235 189.637 400.438 190.39 400.843C191.142 401.248 191.72 401.834 192.126 402.601C192.487 401.877 193.051 401.306 193.818 400.886C194.585 400.452 195.409 400.235 196.292 400.235ZM215.324 406.116C215.324 406.564 215.295 406.969 215.237 407.331H206.102C206.174 408.286 206.528 409.053 207.165 409.631C207.802 410.21 208.583 410.499 209.509 410.499C210.84 410.499 211.78 409.942 212.33 408.828H214.999C214.637 409.928 213.979 410.832 213.024 411.541C212.084 412.235 210.912 412.583 209.509 412.583C208.366 412.583 207.339 412.329 206.427 411.823C205.53 411.302 204.821 410.579 204.301 409.653C203.794 408.713 203.541 407.628 203.541 406.398C203.541 405.168 203.787 404.091 204.279 403.165C204.785 402.224 205.487 401.501 206.384 400.995C207.295 400.488 208.337 400.235 209.509 400.235C210.637 400.235 211.642 400.481 212.525 400.973C213.407 401.465 214.095 402.159 214.586 403.056C215.078 403.939 215.324 404.959 215.324 406.116ZM212.742 405.335C212.727 404.423 212.402 403.693 211.765 403.143C211.129 402.593 210.34 402.318 209.4 402.318C208.547 402.318 207.816 402.593 207.208 403.143C206.601 403.678 206.239 404.409 206.123 405.335H212.742ZM223.791 400.235C224.732 400.235 225.571 400.431 226.308 400.821C227.061 401.212 227.647 401.79 228.066 402.557C228.486 403.324 228.695 404.25 228.695 405.335V412.387H226.243V405.704C226.243 404.633 225.976 403.816 225.44 403.252C224.905 402.673 224.175 402.384 223.249 402.384C222.323 402.384 221.585 402.673 221.035 403.252C220.5 403.816 220.232 404.633 220.232 405.704V412.387H217.759V400.431H220.232V401.798C220.638 401.306 221.151 400.922 221.773 400.648C222.41 400.373 223.082 400.235 223.791 400.235ZM234.737 402.449V409.067C234.737 409.516 234.838 409.841 235.041 410.044C235.258 410.232 235.62 410.326 236.126 410.326H237.645V412.387H235.692C234.578 412.387 233.724 412.127 233.131 411.606C232.538 411.085 232.242 410.239 232.242 409.067V402.449H230.831V400.431H232.242V397.458H234.737V400.431H237.645V402.449H234.737ZM250.748 412.583C249.62 412.583 248.6 412.329 247.688 411.823C246.777 411.302 246.061 410.579 245.54 409.653C245.019 408.713 244.759 407.628 244.759 406.398C244.759 405.183 245.027 404.105 245.562 403.165C246.097 402.224 246.828 401.501 247.754 400.995C248.679 400.488 249.714 400.235 250.857 400.235C251.999 400.235 253.034 400.488 253.96 400.995C254.886 401.501 255.616 402.224 256.151 403.165C256.687 404.105 256.954 405.183 256.954 406.398C256.954 407.613 256.679 408.691 256.13 409.631C255.58 410.572 254.828 411.302 253.873 411.823C252.933 412.329 251.891 412.583 250.748 412.583ZM250.748 410.434C251.385 410.434 251.978 410.282 252.528 409.979C253.092 409.675 253.547 409.219 253.895 408.611C254.242 408.004 254.415 407.266 254.415 406.398C254.415 405.53 254.249 404.799 253.916 404.206C253.584 403.599 253.142 403.143 252.593 402.839C252.043 402.535 251.45 402.384 250.813 402.384C250.177 402.384 249.584 402.535 249.034 402.839C248.499 403.143 248.072 403.599 247.754 404.206C247.435 404.799 247.276 405.53 247.276 406.398C247.276 407.686 247.602 408.684 248.253 409.393C248.918 410.087 249.75 410.434 250.748 410.434ZM261.874 402.167C262.235 401.559 262.713 401.089 263.306 400.756C263.913 400.409 264.63 400.235 265.454 400.235V402.796H264.825C263.856 402.796 263.118 403.042 262.611 403.534C262.12 404.025 261.874 404.879 261.874 406.094V412.387H259.4V400.431H261.874V402.167ZM278.096 406.42L283.607 412.387H280.266L275.839 407.244V412.387H273.365V396.329H275.839V405.66L280.179 400.431H283.607L278.096 406.42ZM296.339 406.116C296.339 406.564 296.31 406.969 296.252 407.331H287.116C287.189 408.286 287.543 409.053 288.18 409.631C288.816 410.21 289.597 410.499 290.523 410.499C291.854 410.499 292.795 409.942 293.344 408.828H296.013C295.652 409.928 294.994 410.832 294.039 411.541C293.098 412.235 291.927 412.583 290.523 412.583C289.38 412.583 288.353 412.329 287.442 411.823C286.545 411.302 285.836 410.579 285.315 409.653C284.809 408.713 284.556 407.628 284.556 406.398C284.556 405.168 284.802 404.091 285.294 403.165C285.8 402.224 286.502 401.501 287.399 400.995C288.31 400.488 289.352 400.235 290.523 400.235C291.652 400.235 292.657 400.481 293.54 400.973C294.422 401.465 295.109 402.159 295.601 403.056C296.093 403.939 296.339 404.959 296.339 406.116ZM293.757 405.335C293.742 404.423 293.417 403.693 292.78 403.143C292.144 402.593 291.355 402.318 290.415 402.318C289.561 402.318 288.831 402.593 288.223 403.143C287.616 403.678 287.254 404.409 287.138 405.335H293.757ZM309.537 400.431L302.202 418.008H299.641L302.072 412.192L297.363 400.431H300.119L303.482 409.545L306.976 400.431H309.537Z" fill="white"/>
<rect y="435.387" width="38.3106" height="57.6936" rx="7.88592" fill="#455D72"/>
<path d="M28.5144 452.841L20.7727 467.752V476.234H16.9355V467.752L9.1602 452.841H13.4349L18.8541 464.318L24.2733 452.841H28.5144Z" fill="white"/>
<rect x="53.6977" y="435.387" width="36.3106" height="57.6936" rx="7.88592" fill="#455D72"/>
<path d="M68.58 472.902H79.452V476.234H64.036V473.238L74.8743 456.173H64.036V452.841H79.452V455.836L68.58 472.902Z" fill="white"/>
<rect x="105.395" y="435.387" width="51.3106" height="57.6936" rx="7.88592" fill="#455D72"/>
<path d="M147.037 452.841L140.103 476.234H135.761L130.847 458.529L125.63 476.234L121.321 476.268L114.69 452.841H118.763L123.61 471.892L128.861 452.841H133.169L138.05 471.791L142.931 452.841H147.037Z" fill="white"/>
<rect x="172.093" y="435.387" width="40.3106" height="57.6936" rx="7.88592" fill="#455D72"/>
<path d="M194.01 464.554L201.281 476.234H196.972L191.688 467.752L186.74 476.234H182.465L189.736 464.554L182.431 452.841H186.74L192.058 461.39L197.04 452.841H201.314L194.01 464.554Z" fill="white"/>
<rect x="227.791" y="435.387" width="41.3106" height="57.6936" rx="7.88592" fill="#455D72"/>
<path d="M242.774 452.841V467.752C242.774 469.524 243.234 470.86 244.154 471.757C245.097 472.655 246.398 473.104 248.059 473.104C249.742 473.104 251.043 472.655 251.963 471.757C252.906 470.86 253.377 469.524 253.377 467.752V452.841H257.214V467.684C257.214 469.592 256.799 471.207 255.969 472.531C255.138 473.855 254.028 474.843 252.636 475.493C251.245 476.144 249.708 476.47 248.025 476.47C246.342 476.47 244.805 476.144 243.414 475.493C242.045 474.843 240.957 473.855 240.149 472.531C239.341 471.207 238.937 469.592 238.937 467.684V452.841H242.774Z" fill="white"/>
<rect x="284.489" y="435.387" width="41.3106" height="57.6936" rx="7.88592" fill="#455D72"/>
<path d="M315.83 452.841L307.045 476.234H302.602L293.784 452.841H297.89L304.824 472.296L311.791 452.841H315.83Z" fill="white"/>
<rect x="341.186" y="435.387" width="38.3106" height="57.6936" rx="7.88592" fill="#455D72"/>
<path d="M360.074 476.47C358.503 476.47 357.09 476.2 355.833 475.662C354.576 475.101 353.589 474.315 352.871 473.306C352.153 472.296 351.794 471.118 351.794 469.771H355.9C355.99 470.781 356.383 471.611 357.078 472.262C357.796 472.913 358.795 473.238 360.074 473.238C361.398 473.238 362.43 472.924 363.171 472.296C363.911 471.645 364.282 470.815 364.282 469.805C364.282 469.02 364.046 468.38 363.575 467.886C363.126 467.393 362.554 467.011 361.858 466.742C361.185 466.473 360.242 466.181 359.031 465.867C357.505 465.463 356.259 465.059 355.294 464.655C354.352 464.229 353.544 463.578 352.871 462.703C352.198 461.828 351.861 460.661 351.861 459.202C351.861 457.856 352.198 456.678 352.871 455.668C353.544 454.658 354.487 453.884 355.698 453.345C356.91 452.807 358.313 452.538 359.906 452.538C362.172 452.538 364.023 453.11 365.46 454.254C366.918 455.376 367.726 456.925 367.883 458.899H363.642C363.575 458.047 363.171 457.317 362.43 456.711C361.69 456.106 360.714 455.803 359.502 455.803C358.402 455.803 357.505 456.083 356.809 456.644C356.113 457.205 355.766 458.013 355.766 459.068C355.766 459.786 355.979 460.38 356.405 460.852C356.854 461.3 357.415 461.659 358.088 461.929C358.761 462.198 359.681 462.49 360.848 462.804C362.397 463.23 363.653 463.656 364.618 464.083C365.605 464.509 366.436 465.171 367.109 466.069C367.805 466.944 368.152 468.122 368.152 469.603C368.152 470.792 367.827 471.914 367.176 472.969C366.548 474.024 365.617 474.876 364.382 475.527C363.171 476.155 361.735 476.47 360.074 476.47Z" fill="white"/>
<rect x="394.884" y="435.387" width="36.3106" height="57.6936" rx="7.88592" fill="#455D72"/>
<path d="M421.177 452.841V455.971H414.95V476.234H411.113V455.971H404.852V452.841H421.177Z" fill="white"/>
<rect x="446.582" y="435.387" width="44.3106" height="57.6936" rx="7.88592" fill="#455D72"/>
<path d="M475.87 480.475L471.764 476.032C470.754 476.324 469.643 476.47 468.432 476.47C466.255 476.47 464.247 475.965 462.407 474.955C460.589 473.923 459.142 472.498 458.064 470.68C457.01 468.84 456.482 466.776 456.482 464.487C456.482 462.198 457.01 460.145 458.064 458.327C459.142 456.509 460.589 455.096 462.407 454.086C464.247 453.054 466.255 452.538 468.432 452.538C470.631 452.538 472.639 453.054 474.457 454.086C476.297 455.096 477.744 456.509 478.799 458.327C479.853 460.145 480.381 462.198 480.381 464.487C480.381 466.641 479.909 468.593 478.967 470.343C478.047 472.071 476.768 473.463 475.13 474.517L480.751 480.475H475.87ZM460.421 464.487C460.421 466.215 460.757 467.74 461.43 469.064C462.126 470.366 463.08 471.376 464.291 472.094C465.503 472.789 466.883 473.137 468.432 473.137C469.98 473.137 471.36 472.789 472.572 472.094C473.783 471.376 474.726 470.366 475.399 469.064C476.095 467.74 476.442 466.215 476.442 464.487C476.442 462.759 476.095 461.244 475.399 459.943C474.726 458.641 473.783 457.643 472.572 456.947C471.36 456.251 469.98 455.904 468.432 455.904C466.883 455.904 465.503 456.251 464.291 456.947C463.08 457.643 462.126 458.641 461.43 459.943C460.757 461.244 460.421 462.759 460.421 464.487Z" fill="white"/>
<rect x="506.28" y="435.387" width="39.3106" height="57.6936" rx="7.88592" fill="#455D72"/>
<path d="M529.61 476.234L524.225 466.877H521.296V476.234H517.459V452.841H525.538C527.333 452.841 528.847 453.155 530.082 453.783C531.338 454.411 532.269 455.253 532.875 456.308C533.504 457.362 533.818 458.54 533.818 459.842C533.818 461.368 533.369 462.759 532.471 464.016C531.596 465.25 530.239 466.091 528.399 466.54L534.188 476.234H529.61ZM521.296 463.814H525.538C526.974 463.814 528.051 463.455 528.769 462.736C529.509 462.018 529.88 461.053 529.88 459.842C529.88 458.63 529.521 457.688 528.802 457.014C528.084 456.319 526.996 455.971 525.538 455.971H521.296V463.814Z" fill="white"/>
<rect x="560.977" y="435.387" width="44.3106" height="57.6936" rx="7.88592" fill="#455D72"/>
<path d="M582.827 476.47C580.65 476.47 578.642 475.965 576.802 474.955C574.984 473.923 573.537 472.498 572.46 470.68C571.405 468.84 570.878 466.776 570.878 464.487C570.878 462.198 571.405 460.145 572.46 458.327C573.537 456.509 574.984 455.096 576.802 454.086C578.642 453.054 580.65 452.538 582.827 452.538C585.026 452.538 587.034 453.054 588.852 454.086C590.692 455.096 592.139 456.509 593.194 458.327C594.249 460.145 594.776 462.198 594.776 464.487C594.776 466.776 594.249 468.84 593.194 470.68C592.139 472.498 590.692 473.923 588.852 474.955C587.034 475.965 585.026 476.47 582.827 476.47ZM582.827 473.137C584.375 473.137 585.755 472.789 586.967 472.094C588.179 471.376 589.121 470.366 589.795 469.064C590.49 467.74 590.838 466.215 590.838 464.487C590.838 462.759 590.49 461.244 589.795 459.943C589.121 458.641 588.179 457.643 586.967 456.947C585.755 456.251 584.375 455.904 582.827 455.904C581.279 455.904 579.899 456.251 578.687 456.947C577.475 457.643 576.521 458.641 575.826 459.943C575.153 461.244 574.816 462.759 574.816 464.487C574.816 466.215 575.153 467.74 575.826 469.064C576.521 470.366 577.475 471.376 578.687 472.094C579.899 472.789 581.279 473.137 582.827 473.137Z" fill="white"/>
<rect x="620.675" y="435.387" width="38.3106" height="57.6936" rx="7.88592" fill="#455D72"/>
<path d="M648.213 459.808C648.213 460.997 647.933 462.119 647.372 463.174C646.811 464.229 645.913 465.093 644.679 465.766C643.445 466.417 641.863 466.742 639.933 466.742H635.692V476.234H631.855V452.841H639.933C641.728 452.841 643.243 453.155 644.477 453.783C645.734 454.389 646.665 455.219 647.271 456.274C647.899 457.329 648.213 458.507 648.213 459.808ZM639.933 463.612C641.391 463.612 642.48 463.286 643.198 462.635C643.916 461.962 644.275 461.02 644.275 459.808C644.275 457.25 642.828 455.971 639.933 455.971H635.692V463.612H639.933Z" fill="white"/>
<rect x="674.373" y="435.387" width="47.3106" height="57.6936" rx="7.88592" fill="#455D72"/>
<path d="M710.191 452.841V476.234H706.354V460.212L699.218 476.234H696.559L689.39 460.212V476.234H685.553V452.841H689.693L697.906 471.185L706.085 452.841H710.191Z" fill="white"/>
<rect x="737.071" y="435.387" width="42.3106" height="57.6936" rx="7.88592" fill="#455D72"/>
<path d="M767.47 476.234H763.633L752.087 458.765V476.234H748.25V452.807H752.087L763.633 470.243V452.807H767.47V476.234Z" fill="white"/>
<rect x="794.768" y="435.387" width="39.3106" height="57.6936" rx="7.88592" fill="#455D72"/>
<path d="M818.84 476.234L809.785 465.766V476.234H805.948V452.841H809.785V463.511L818.873 452.841H823.687L813.521 464.554L823.855 476.234H818.84Z" fill="white"/>
<rect x="849.466" y="435.387" width="32.3106" height="57.6936" rx="7.88592" fill="#455D72"/>
<path d="M864.483 473.137H872.393V476.234H860.646V452.841H864.483V473.137Z" fill="white"/>
<rect x="897.164" y="435.387" width="26.3106" height="57.6936" rx="7.88592" fill="#455D72"/>
<path d="M912.18 452.841V476.234H908.343V452.841H912.18Z" fill="white"/>
<rect x="938.861" y="435.387" width="36.3106" height="57.6936" rx="7.88592" fill="#455D72"/>
<path d="M962.798 452.841V469.704C962.798 471.791 962.158 473.44 960.879 474.652C959.623 475.864 957.962 476.47 955.898 476.47C953.833 476.47 952.162 475.864 950.883 474.652C949.626 473.44 948.998 471.791 948.998 469.704H952.868C952.891 470.736 953.149 471.555 953.643 472.161C954.159 472.767 954.91 473.07 955.898 473.07C956.885 473.07 957.637 472.767 958.153 472.161C958.669 471.533 958.927 470.714 958.927 469.704V452.841H962.798Z" fill="white"/>
<rect x="990.559" y="435.387" width="44.3106" height="57.6936" rx="7.88592" fill="#455D72"/>
<path d="M1018.67 459.572C1018.06 458.406 1017.22 457.53 1016.15 456.947C1015.07 456.341 1013.82 456.038 1012.41 456.038C1010.86 456.038 1009.48 456.386 1008.27 457.082C1007.06 457.777 1006.1 458.765 1005.41 460.044C1004.73 461.323 1004.4 462.804 1004.4 464.487C1004.4 466.17 1004.73 467.662 1005.41 468.963C1006.1 470.243 1007.06 471.23 1008.27 471.925C1009.48 472.621 1010.86 472.969 1012.41 472.969C1014.5 472.969 1016.19 472.385 1017.49 471.219C1018.79 470.052 1019.59 468.47 1019.88 466.473H1011.1V463.41H1023.99V466.405C1023.74 468.223 1023.09 469.895 1022.04 471.421C1021 472.946 1019.65 474.169 1017.96 475.089C1016.3 475.987 1014.45 476.436 1012.41 476.436C1010.21 476.436 1008.2 475.931 1006.38 474.921C1004.57 473.889 1003.12 472.464 1002.04 470.646C1000.99 468.829 1000.46 466.776 1000.46 464.487C1000.46 462.198 1000.99 460.145 1002.04 458.327C1003.12 456.509 1004.57 455.096 1006.38 454.086C1008.22 453.054 1010.23 452.538 1012.41 452.538C1014.9 452.538 1017.11 453.155 1019.04 454.389C1020.99 455.601 1022.41 457.329 1023.28 459.572H1018.67Z" fill="white"/>
<rect x="1050.26" y="435.387" width="41.3106" height="57.6936" rx="7.88592" fill="#455D72"/>
<path d="M1080.12 452.841V476.234H1076.28V466.001H1065.27V476.234H1061.44V452.841H1065.27V462.871H1076.28V452.841H1080.12Z" fill="white"/>
<rect x="1106.95" y="435.387" width="35.3106" height="57.6936" rx="7.88592" fill="#455D72"/>
<path d="M1121.97 455.937V462.804H1130.05V465.934H1121.97V473.104H1131.06V476.234H1118.13V452.807H1131.06V455.937H1121.97Z" fill="white"/>
<rect x="1157.65" y="435.387" width="35.3106" height="57.6936" rx="7.88592" fill="#455D72"/>
<path d="M1182.6 452.841V455.971H1172.67V462.871H1180.41V466.001H1172.67V476.234H1168.83V452.841H1182.6Z" fill="white"/>
<rect x="1208.35" y="435.387" width="44.3106" height="57.6936" rx="7.88592" fill="#455D72"/>
<path d="M1218.25 464.487C1218.25 462.198 1218.78 460.145 1219.83 458.327C1220.91 456.509 1222.36 455.096 1224.17 454.086C1226.01 453.054 1228.02 452.538 1230.2 452.538C1232.69 452.538 1234.9 453.155 1236.83 454.389C1238.78 455.601 1240.2 457.329 1241.07 459.572H1236.46C1235.85 458.338 1235.01 457.418 1233.94 456.812C1232.86 456.207 1231.61 455.904 1230.2 455.904C1228.65 455.904 1227.27 456.251 1226.06 456.947C1224.85 457.643 1223.89 458.641 1223.2 459.943C1222.53 461.244 1222.19 462.759 1222.19 464.487C1222.19 466.215 1222.53 467.729 1223.2 469.031C1223.89 470.332 1224.85 471.342 1226.06 472.06C1227.27 472.756 1228.65 473.104 1230.2 473.104C1231.61 473.104 1232.86 472.801 1233.94 472.195C1235.01 471.589 1235.85 470.669 1236.46 469.435H1241.07C1240.2 471.679 1238.78 473.406 1236.83 474.618C1234.9 475.83 1232.69 476.436 1230.2 476.436C1228 476.436 1225.99 475.931 1224.17 474.921C1222.36 473.889 1220.91 472.464 1219.83 470.646C1218.78 468.829 1218.25 466.776 1218.25 464.487Z" fill="white"/>
<rect x="1268.05" y="435.387" width="41.3106" height="57.6936" rx="7.88592" fill="#455D72"/>
<path d="M1286.87 452.841C1289.36 452.841 1291.54 453.323 1293.4 454.288C1295.28 455.23 1296.73 456.599 1297.74 458.394C1298.77 460.167 1299.29 462.243 1299.29 464.621C1299.29 467 1298.77 469.064 1297.74 470.815C1296.73 472.565 1295.28 473.911 1293.4 474.854C1291.54 475.774 1289.36 476.234 1286.87 476.234H1279.23V452.841H1286.87ZM1286.87 473.104C1289.61 473.104 1291.7 472.363 1293.16 470.882C1294.62 469.401 1295.35 467.314 1295.35 464.621C1295.35 461.906 1294.62 459.786 1293.16 458.26C1291.7 456.734 1289.61 455.971 1286.87 455.971H1283.06V473.104H1286.87Z" fill="white"/>
<rect x="1321.86" y="435.387" width="41.3106" height="57.6936" rx="7.88592" fill="#455D72"/>
<path d="M1347.14 471.454H1337.35L1335.67 476.234H1331.66L1340.04 452.807H1344.48L1352.87 476.234H1348.83L1347.14 471.454ZM1346.07 468.324L1342.26 457.452L1338.43 468.324H1346.07Z" fill="white"/>
<rect x="1378.56" y="435.387" width="39.3106" height="57.6936" rx="7.88592" fill="#455D72"/>
<path d="M1402.26 464.217C1403.52 464.442 1404.58 465.104 1405.46 466.203C1406.33 467.303 1406.77 468.548 1406.77 469.94C1406.77 471.129 1406.46 472.206 1405.83 473.171C1405.22 474.113 1404.33 474.865 1403.17 475.426C1402 475.965 1400.64 476.234 1399.1 476.234H1389.74V452.841H1398.66C1400.25 452.841 1401.62 453.11 1402.76 453.648C1403.91 454.187 1404.77 454.916 1405.36 455.836C1405.94 456.734 1406.23 457.744 1406.23 458.866C1406.23 460.212 1405.87 461.334 1405.15 462.232C1404.44 463.129 1403.47 463.791 1402.26 464.217ZM1393.57 462.669H1398.32C1399.58 462.669 1400.55 462.389 1401.25 461.828C1401.97 461.244 1402.33 460.414 1402.33 459.337C1402.33 458.282 1401.97 457.463 1401.25 456.88C1400.55 456.274 1399.58 455.971 1398.32 455.971H1393.57V462.669ZM1398.76 473.104C1400.06 473.104 1401.08 472.789 1401.82 472.161C1402.56 471.533 1402.93 470.658 1402.93 469.536C1402.93 468.391 1402.54 467.482 1401.75 466.809C1400.97 466.136 1399.93 465.799 1398.62 465.799H1393.57V473.104H1398.76Z" fill="white"/>
</svg>
