<svg width="350" height="67" viewBox="0 0 350 67" fill="none" xmlns="http://www.w3.org/2000/svg">
<path d="M0 7.71168C0 3.45264 3.45263 0 7.71167 0H341.627C345.886 0 349.339 3.45263 349.339 7.71167V58.6087C349.339 62.8678 345.886 66.3204 341.627 66.3204H7.71168C3.45264 66.3204 0 62.8678 0 58.6087V7.71168Z" fill="#526D82" fill-opacity="0.7"/>
<path d="M91.0726 39.6674H82.1938L80.6682 44H77.0374L84.6347 22.7641H88.6622L96.2595 44H92.5982L91.0726 39.6674ZM90.0962 36.8298L86.6485 26.9747L83.1702 36.8298H90.0962ZM103.041 41.193H110.211V44H99.5629V22.7946H103.041V41.193ZM125.904 39.6674H117.026L115.5 44H111.869L119.467 22.7641H123.494L131.091 44H127.43L125.904 39.6674ZM124.928 36.8298L121.48 26.9747L118.002 36.8298H124.928ZM151.817 44H148.338L137.873 28.1646V44H134.395V22.7641H137.873L148.338 38.569V22.7641H151.817V44ZM178.01 22.7946V25.6322H172.365V44H168.887V25.6322H163.212V22.7946H178.01ZM184.98 22.7946V36.3111C184.98 37.9181 185.397 39.1284 186.231 39.942C187.085 40.7556 188.265 41.1624 189.77 41.1624C191.296 41.1624 192.476 40.7556 193.31 39.942C194.164 39.1284 194.591 37.9181 194.591 36.3111V22.7946H198.069V36.2501C198.069 37.9791 197.693 39.4436 196.941 40.6438C196.188 41.8439 195.181 42.7389 193.92 43.3288C192.659 43.9186 191.265 44.2136 189.74 44.2136C188.214 44.2136 186.821 43.9186 185.56 43.3288C184.319 42.7389 183.332 41.8439 182.6 40.6438C181.868 39.4436 181.502 37.9791 181.502 36.2501V22.7946H184.98ZM213.613 44L208.731 35.5178H206.077V44H202.598V22.7946H209.921C211.548 22.7946 212.921 23.0794 214.04 23.6489C215.179 24.2185 216.023 24.9813 216.572 25.9373C217.142 26.8933 217.427 27.9612 217.427 29.141C217.427 30.5242 217.02 31.7853 216.206 32.9244C215.413 34.0431 214.182 34.8059 212.514 35.2127L217.762 44H213.613ZM206.077 32.7413H209.921C211.223 32.7413 212.199 32.4159 212.85 31.7649C213.521 31.114 213.857 30.2394 213.857 29.141C213.857 28.0426 213.531 27.1882 212.881 26.578C212.23 25.9475 211.243 25.6322 209.921 25.6322H206.077V32.7413ZM225.355 22.7946V44H221.876V22.7946H225.355ZM247.343 44H243.865L233.4 28.1646V44H229.921V22.7641H233.4L243.865 38.569V22.7641H247.343V44ZM267.258 28.8969C266.709 27.8392 265.946 27.0459 264.97 26.517C263.994 25.9678 262.865 25.6932 261.583 25.6932C260.18 25.6932 258.929 26.0085 257.83 26.639C256.732 27.2696 255.867 28.1646 255.237 29.324C254.627 30.4835 254.321 31.826 254.321 33.3515C254.321 34.8771 254.627 36.2298 255.237 37.4095C255.867 38.569 256.732 39.464 257.83 40.0945C258.929 40.7251 260.18 41.0404 261.583 41.0404C263.475 41.0404 265.011 40.5115 266.19 39.4538C267.37 38.3961 268.092 36.962 268.357 35.1517H260.393V32.3752H272.079V35.0907C271.855 36.7383 271.265 38.2537 270.309 39.6369C269.374 41.0201 268.143 42.1286 266.617 42.9626C265.112 43.7763 263.434 44.1831 261.583 44.1831C259.59 44.1831 257.769 43.7254 256.122 42.8101C254.474 41.8744 253.162 40.5827 252.186 38.9351C251.23 37.2875 250.752 35.4263 250.752 33.3515C250.752 31.2768 251.23 29.4156 252.186 27.768C253.162 26.1204 254.474 24.8389 256.122 23.9235C257.79 22.9879 259.61 22.52 261.583 22.52C263.841 22.52 265.845 23.0794 267.594 24.1981C269.364 25.2965 270.645 26.8628 271.438 28.8969H267.258Z" fill="white"/>
</svg>
