<svg width="177" height="59" viewBox="0 0 177 59" fill="none" xmlns="http://www.w3.org/2000/svg">
<path d="M9.8584 22.8337C12.274 22.8337 14.385 23.3016 16.1913 24.2374C18.0193 25.1514 19.423 26.479 20.4023 28.2199C21.4034 29.9392 21.9039 31.9522 21.9039 34.259C21.9039 36.5659 21.4034 38.568 20.4023 40.2655C19.423 41.963 18.0193 43.2687 16.1913 44.1827C14.385 45.075 12.274 45.5211 9.8584 45.5211H2.44828V22.8337H9.8584ZM9.8584 42.4853C12.5134 42.4853 14.5482 41.7671 15.9628 40.3308C17.3773 38.8944 18.0846 36.8705 18.0846 34.259C18.0846 31.6258 17.3773 29.5692 15.9628 28.0894C14.5482 26.6095 12.5134 25.8696 9.8584 25.8696H6.16966V42.4853H9.8584ZM42.0772 36.0871C42.0772 36.7617 42.0337 37.3711 41.9467 37.9151H28.2037C28.3125 39.3515 28.8457 40.5049 29.8032 41.3754C30.7608 42.2459 31.9359 42.6811 33.3287 42.6811C35.3309 42.6811 36.7454 41.8433 37.5724 40.1675H41.5876C41.0435 41.8215 40.0533 43.1817 38.617 44.248C37.2024 45.2926 35.4397 45.8149 33.3287 45.8149C31.6095 45.8149 30.0644 45.4341 28.6933 44.6724C27.344 43.8889 26.2777 42.8008 25.4942 41.408C24.7325 39.9934 24.3517 38.3613 24.3517 36.5115C24.3517 34.6616 24.7217 33.0403 25.4616 31.6475C26.2233 30.233 27.2788 29.1449 28.628 28.3832C29.9991 27.6215 31.566 27.2406 33.3287 27.2406C35.0262 27.2406 36.5387 27.6106 37.8662 28.3505C39.1937 29.0904 40.2274 30.135 40.9674 31.4843C41.7073 32.8118 42.0772 34.3461 42.0772 36.0871ZM38.1926 34.9119C38.1709 33.5409 37.6812 32.4419 36.7237 31.6149C35.7661 30.7879 34.5801 30.3744 33.1655 30.3744C31.8815 30.3744 30.7825 30.7879 29.8685 31.6149C28.9545 32.4201 28.4104 33.5191 28.2363 34.9119H38.1926ZM44.499 36.5115C44.499 34.6616 44.869 33.0403 45.6089 31.6475C46.3706 30.233 47.4152 29.1449 48.7427 28.3832C50.0702 27.6215 51.5936 27.2406 53.3128 27.2406C55.489 27.2406 57.2844 27.7629 58.699 28.8075C60.1353 29.8304 61.1038 31.2993 61.6043 33.2144H57.5891C57.2627 32.3222 56.7404 31.6258 56.0222 31.1252C55.3041 30.6247 54.4009 30.3744 53.3128 30.3744C51.7894 30.3744 50.5707 30.9185 49.6567 32.0066C48.7644 33.073 48.3183 34.5746 48.3183 36.5115C48.3183 38.4483 48.7644 39.9608 49.6567 41.0489C50.5707 42.1371 51.7894 42.6811 53.3128 42.6811C55.4673 42.6811 56.8927 41.7344 57.5891 39.8411H61.6043C61.082 41.6692 60.1027 43.1272 58.6664 44.2154C57.23 45.2817 55.4455 45.8149 53.3128 45.8149C51.5936 45.8149 50.0702 45.4341 48.7427 44.6724C47.4152 43.8889 46.3706 42.8008 45.6089 41.408C44.869 39.9934 44.499 38.3613 44.499 36.5115Z" fill="white"/>
<path d="M64.4101 29.8501V27.1624H69.7855V46.002H66.8135V29.8501H64.4101Z" fill="white"/>
<path d="M71.3374 11.4526L72.5003 13.5201L68.9599 14.8381L72.5003 16.1561L71.3116 18.2752L68.3655 15.9493L68.9082 19.6965H66.5306L67.0216 15.9493L64.0755 18.3269L62.8351 16.1302L66.3497 14.8122L62.8351 13.5459L64.0239 11.4268L67.0475 13.7527L66.5306 9.97959H68.934L68.3655 13.7527L71.3374 11.4526Z" fill="white"/>
<path d="M159.747 11.4526L160.91 13.5201L157.37 14.8381L160.91 16.1561L159.722 18.2752L156.776 15.9493L157.318 19.6965H154.941L155.432 15.9493L152.486 18.3269L151.245 16.1302L154.76 14.8122L151.245 13.5459L152.434 11.4268L155.458 13.7527L154.941 9.97959H157.344L156.776 13.7527L159.747 11.4526Z" fill="white"/>
<path d="M78.9379 30.1786C79.5691 29.3516 80.4287 28.6552 81.5168 28.0894C82.6049 27.5235 83.8345 27.2406 85.2055 27.2406C86.7724 27.2406 88.1979 27.6324 89.4819 28.4158C90.7876 29.1775 91.8104 30.2547 92.5504 31.6475C93.2903 33.0403 93.6603 34.6399 93.6603 36.4462C93.6603 38.2525 93.2903 39.8738 92.5504 41.3101C91.8104 42.7246 90.7876 43.8345 89.4819 44.6397C88.1979 45.4232 86.7724 45.8149 85.2055 45.8149C83.8345 45.8149 82.6158 45.5429 81.5494 44.9988C80.4831 44.433 79.6126 43.7366 78.9379 42.9096V54.0738H75.2166V27.5344H78.9379V30.1786ZM89.8736 36.4462C89.8736 35.2057 89.6124 34.1393 89.0901 33.2471C88.5896 32.3331 87.915 31.6475 87.0662 31.1905C86.2393 30.7118 85.347 30.4724 84.3894 30.4724C83.4537 30.4724 82.5614 30.7118 81.7127 31.1905C80.8857 31.6693 80.211 32.3657 79.6887 33.2797C79.1882 34.1937 78.9379 35.271 78.9379 36.5115C78.9379 37.7519 79.1882 38.84 79.6887 39.7758C80.211 40.6898 80.8857 41.3862 81.7127 41.865C82.5614 42.3438 83.4537 42.5832 84.3894 42.5832C85.347 42.5832 86.2393 42.3438 87.0662 41.865C87.915 41.3645 88.5896 40.6463 89.0901 39.7105C89.6124 38.7748 89.8736 37.6866 89.8736 36.4462ZM106.644 27.2406C108.015 27.2406 109.234 27.5344 110.3 28.122C111.388 28.7096 112.237 29.5801 112.846 30.7335C113.477 31.8869 113.793 33.2797 113.793 34.9119V45.5211H110.104V35.4669C110.104 33.8564 109.701 32.6268 108.896 31.7781C108.091 30.9076 106.992 30.4724 105.599 30.4724C104.206 30.4724 103.097 30.9076 102.27 31.7781C101.464 32.6268 101.062 33.8564 101.062 35.4669V45.5211H97.3403V21.3648H101.062V29.6236C101.693 28.8619 102.487 28.2744 103.445 27.8609C104.424 27.4474 105.49 27.2406 106.644 27.2406ZM135.025 36.0871C135.025 36.7617 134.981 37.3711 134.894 37.9151H121.151C121.26 39.3515 121.793 40.5049 122.751 41.3754C123.708 42.2459 124.883 42.6811 126.276 42.6811C128.278 42.6811 129.693 41.8433 130.52 40.1675H134.535C133.991 41.8215 133.001 43.1817 131.564 44.248C130.15 45.2926 128.387 45.8149 126.276 45.8149C124.557 45.8149 123.012 45.4341 121.641 44.6724C120.291 43.8889 119.225 42.8008 118.442 41.408C117.68 39.9934 117.299 38.3613 117.299 36.5115C117.299 34.6616 117.669 33.0403 118.409 31.6475C119.171 30.233 120.226 29.1449 121.575 28.3832C122.947 27.6215 124.513 27.2406 126.276 27.2406C127.974 27.2406 129.486 27.6106 130.814 28.3505C132.141 29.0904 133.175 30.135 133.915 31.4843C134.655 32.8118 135.025 34.3461 135.025 36.0871ZM131.14 34.9119C131.118 33.5409 130.629 32.4419 129.671 31.6149C128.714 30.7879 127.528 30.3744 126.113 30.3744C124.829 30.3744 123.73 30.7879 122.816 31.6149C121.902 32.4201 121.358 33.5191 121.184 34.9119H131.14ZM142.408 30.1459C142.952 29.2319 143.671 28.5246 144.563 28.0241C145.477 27.5018 146.554 27.2406 147.795 27.2406V31.0926H146.848C145.39 31.0926 144.28 31.4626 143.518 32.2025C142.778 32.9424 142.408 34.2264 142.408 36.0544V45.5211H138.687V27.5344H142.408V30.1459Z" fill="white"/>
<path d="M152.82 29.8501V27.1624H158.195V46.002H155.224V29.8501H152.82Z" fill="white"/>
<path d="M170.008 29.8902V39.8466C170.008 40.5212 170.161 41.0109 170.465 41.3155C170.792 41.5985 171.336 41.7399 172.098 41.7399H174.383V44.8411H171.445C169.769 44.8411 168.485 44.4493 167.593 43.6659C166.701 42.8824 166.254 41.6093 166.254 39.8466V29.8902H164.133V26.8544H166.254V22.3822H170.008V26.8544H174.383V29.8902H170.008Z" fill="white"/>
</svg>
